<svg xmlns="http://www.w3.org/2000/svg" width="24" height="24" fill="none" viewBox="0 0 24 24">
  <path stroke="currentColor" strokeLinecap="round" strokeWidth="2" d="M7.25 2.75H4.25C3.42157 2.75 2.75 3.42157 2.75 4.25V7.25"/>
  <path stroke="currentColor" strokeLinecap="round" strokeWidth="2" d="M16.75 2.75H19.75C20.5784 2.75 21.25 3.42157 21.25 4.25V7.25"/>
  <path stroke="currentColor" strokeLinecap="round" strokeWidth="2" d="M2.75 16.75L2.75 19.75C2.75 20.5784 3.42157 21.25 4.25 21.25L7.25 21.25"/>
  <path stroke="currentColor" strokeLinecap="round" strokeWidth="2" d="M21.25 16.75L21.25 19.75C21.25 20.5784 20.5784 21.25 19.75 21.25L16.75 21.25"/>
  <path stroke="currentColor" strokeLinejoin="round" strokeWidth="1.75" d="M7 9.29395L11.762 11.871C11.9105 11.9514 12.0895 11.9514 12.238 11.871L17 9.29395"/>
  <path stroke="currentColor" strokeLinejoin="round" strokeWidth="1.75" d="M7 14.1611V9.84901C7 9.29825 7.30183 8.79178 7.78624 8.52971L11.2862 6.63616C11.7316 6.39522 12.2684 6.39522 12.7138 6.63616L16.2138 8.52971C16.6982 8.79178 17 9.29825 17 9.84901V14.1611C17 14.7129 16.6971 15.2201 16.2113 15.4817L12.7113 17.3669C12.2673 17.6061 11.7327 17.6061 11.2887 17.3669L7.78869 15.4817C7.30292 15.2201 7 14.7129 7 14.1611Z"/>
  <path stroke="currentColor" strokeWidth="1.75" d="M12 17.5V12"/>
</svg>
