<svg xmlns="http://www.w3.org/2000/svg" width="24" height="24" fill="none" viewBox="0 0 24 24">
  <path stroke="currentColor" strokeLinecap="round" strokeWidth="2" d="M8.25 16L7.22077 10.2363C7.09302 9.52092 6.47084 9 5.74413 9H3.92356C3.41349 9 3 9.41349 3 9.92356V9.92356C3 9.97443 3.0042 10.0252 3.01257 10.0754L4.5411 19.2466C4.66165 19.9699 5.28743 20.5 6.02069 20.5H17.9793C18.7126 20.5 19.3384 19.9699 19.4589 19.2466L20.9874 10.0754C20.9958 10.0252 21 9.97443 21 9.92356V9.92356C21 9.41349 20.5865 9 20.0764 9H18.2559C17.5292 9 16.907 9.52092 16.7792 10.2363L15.75 16"/>
  <path stroke="currentColor" strokeWidth="2" d="M16 13H8"/>
  <path stroke="currentColor" strokeWidth="2" d="M5 9V6C5 4.61929 6.11929 3.5 7.5 3.5H16.5C17.8807 3.5 19 4.61929 19 6V9"/>
</svg>
