<svg xmlns="http://www.w3.org/2000/svg"   fill="none" viewBox="0 0 24 24">
  <path stroke="currentColor" strokeWidth="2" d="M4.75 16.75H2.75C1.92157 16.75 1.25 16.0784 1.25 15.25V6C1.25 5.17157 1.92157 4.5 2.75 4.5H16.2991C16.7433 4.5 17.1647 4.69691 17.4497 5.03767L22.4006 10.9573C22.6263 11.2271 22.75 11.5678 22.75 11.9196V15.25C22.75 16.0784 22.0784 16.75 21.25 16.75H20"/>
  <path stroke="currentColor" strokeWidth="2" d="M9.25 16.75H15.5"/>
  <circle cx="2.25" cy="2.25" r="2.25" stroke="currentColor" strokeWidth="2" transform="matrix(0 1 1 0 4.75 15)"/>
  <circle cx="2.25" cy="2.25" r="2.25" stroke="currentColor" strokeWidth="2" transform="matrix(0 1 1 0 15.5 15)"/>
  <path stroke="currentColor" strokeWidth="2" d="M13.75 11V4.5"/>
  <path stroke="currentColor" strokeWidth="2" d="M7.5 11V4.5"/>
  <path stroke="currentColor" strokeWidth="2" d="M1.375 11H22.25"/>
</svg>
