<svg xmlns="http://www.w3.org/2000/svg"   fill="none" viewBox="0 0 24 24">
  <path stroke="currentColor" strokeWidth="2" d="M3.5 14.75L3.5 19.75C3.5 20.1642 3.83579 20.5 4.25 20.5L6.25 20.5C6.66421 20.5 7 20.1642 7 19.75L7 17"/>
  <path stroke="currentColor" strokeWidth="2" d="M17 17L17 19.75C17 20.1642 17.3358 20.5 17.75 20.5L19.75 20.5C20.1642 20.5 20.5 20.1642 20.5 19.75L20.5 14.75"/>
  <path stroke="currentColor" strokeWidth="1.75" d="M3.625 13L6.90006 13.7486C7.63103 13.9157 8.37848 14 9.1283 14L14.9023 14C15.6319 14 16.3593 13.9201 17.0716 13.7619L20.5 13"/>
  <path stroke="currentColor" strokeWidth="2" d="M6.16049 5.11905L3.66837 9.92529C3.55774 10.1386 3.5 10.3754 3.5 10.6158V15.0527C3.5 15.753 3.98464 16.3601 4.66757 16.5154L7.90585 17.2513C8.633 17.4166 9.37636 17.5 10.1221 17.5H13.8779C14.6236 17.5 15.367 17.4166 16.0942 17.2513L19.3324 16.5154C20.0154 16.3601 20.5 15.753 20.5 15.0527V10.6158C20.5 10.3754 20.4423 10.1386 20.3316 9.92529L17.8395 5.11905C17.3237 4.12437 16.2967 3.5 15.1762 3.5H8.82376C7.70332 3.5 6.67625 4.12437 6.16049 5.11905Z"/>
  <path stroke="currentColor" strokeWidth="1.75" d="M9 17.5L8 14"/>
  <path stroke="currentColor" strokeWidth="1.75" d="M15 17.5L16 14"/>
  <path stroke="currentColor" strokeLinecap="round" strokeWidth="1.75" d="M1.875 9.5L3.75 10H20.125L22.125 9.5"/>
</svg>
