<svg xmlns="http://www.w3.org/2000/svg"   fill="none" viewBox="0 0 24 24">
  <path stroke="currentColor" strokeLinecap="square" strokeWidth="2" d="M4.5 8.5C4.5 7.67157 5.17157 7 6 7H14.5C15.3284 7 16 7.67157 16 8.5V20.5C16 21.3284 15.3284 22 14.5 22H6C5.17157 22 4.5 21.3284 4.5 20.5V8.5Z"/>
  <path stroke="currentColor" strokeWidth="2" d="M15.9999 17.389L18.0102 17.5965C18.8333 17.6815 19.5698 17.0838 19.656 16.2608L20.8445 4.92092C20.9305 4.10025 20.3374 3.36421 19.5173 3.27364L11.7438 2.41527C10.9193 2.32422 10.1774 2.91978 10.0879 3.74454L9.70787 7.25031"/>
  <path stroke="currentColor" strokeLinejoin="round" strokeWidth="1.75" d="M7.91406 14.5798C8.53477 15.2508 9.25025 15.9872 9.72371 16.4694C10.013 16.7639 10.4849 16.7653 10.7753 16.4719C11.2497 15.9927 11.9664 15.2591 12.5917 14.5787C13.0362 14.0951 13.1214 13.3777 12.8294 12.7835C12.3479 11.8039 11.0154 11.7328 10.438 12.6558L10.2865 12.8982H10.2099L10.0545 12.6497C9.47884 11.7293 8.1503 11.8003 7.6702 12.777C7.3767 13.3741 7.46582 14.0952 7.91406 14.5798Z"/>
</svg>
