<svg xmlns="http://www.w3.org/2000/svg" width="24" height="24" fill="none" viewBox="0 0 24 24">
  <path stroke="currentColor" strokeWidth="2" d="M3.5 12V3.85355C3.5 3.65829 3.65829 3.5 3.85355 3.5C3.94732 3.5 4.03725 3.53725 4.10355 3.60355L6.78132 6.28132C7.01569 6.51569 7.37482 6.56562 7.67556 6.42631C8.94247 5.83943 10.421 5.5 12 5.5C13.5693 5.5 15.0394 5.84924 16.3011 6.44342C16.6024 6.58534 16.9638 6.53618 17.1994 6.30063L19.8964 3.60355C19.9628 3.53725 20.0527 3.5 20.1464 3.5C20.3417 3.5 20.5 3.65829 20.5 3.85355V12C20.5 12.0137 20.4999 12.0273 20.4998 12.0407C20.4999 12.0549 20.5 12.0691 20.5 12.0833C20.5 17.5602 16.6944 20.5 12 20.5C7.30558 20.5 3.5 17.5602 3.5 12.0833C3.5 12.0689 3.50006 12.0544 3.50019 12.04C3.50006 12.0268 3.5 12.0134 3.5 12Z"/>
  <path stroke="currentColor" strokeLinecap="round" strokeWidth="1.75" d="M12 17.5L10.5 16M12 17.5L13.5 16M12 17.5V20.375"/>
  <path stroke="currentColor" strokeLinecap="round" strokeWidth="1.75" d="M20.5 20.5001L17.75 19.0442"/>
  <path stroke="currentColor" strokeLinecap="round" strokeWidth="1.75" d="M3.5 20.5001L6.25 19.0442"/>
  <path stroke="currentColor" strokeLinecap="round" strokeWidth="1.75" d="M18 16H22.75"/>
  <path stroke="currentColor" strokeLinecap="round" strokeWidth="1.75" d="M1.25 16H6"/>
  <path stroke="currentColor" strokeLinecap="round" strokeWidth="3" d="M8.5 11.975V12.025"/>
  <path stroke="currentColor" strokeLinecap="round" strokeWidth="3" d="M15.5 11.975V12.025"/>
</svg>
