<svg xmlns="http://www.w3.org/2000/svg" width="24" height="24" fill="none" viewBox="0 0 24 24">
  <path stroke="currentColor" strokeLinecap="square" strokeLinejoin="round" strokeWidth="2" d="M18 6.5V4.5C18 3.11929 16.8807 2 15.5 2H8.5C7.11929 2 6 3.11929 6 4.5V6.5C6 7.32843 6.67157 8 7.5 8H16.5C17.3284 8 18 7.32843 18 6.5Z"/>
  <path stroke="currentColor" strokeLinecap="square" strokeLinejoin="round" strokeWidth="2" d="M8.24264 15.5H15.7574C16.553 15.5 17.3161 15.1839 17.8787 14.6213L19.8964 12.6036C19.9628 12.5372 20 12.4473 20 12.3536C20 12.1583 19.8417 12 19.6464 12H4.35355C4.15829 12 4 12.1583 4 12.3536C4 12.4473 4.03725 12.5372 4.10355 12.6036L6.12132 14.6213C6.68393 15.1839 7.44699 15.5 8.24264 15.5Z"/>
  <path stroke="currentColor" strokeWidth="2" d="M8 12V8"/>
  <path stroke="currentColor" strokeLinecap="round" strokeWidth="2" d="M6.25 22L7.25 15.5"/>
  <path stroke="currentColor" strokeLinecap="round" strokeWidth="2" d="M17.75 22L16.75 15.5"/>
  <path stroke="currentColor" strokeWidth="2" d="M16 12V8"/>
</svg>
