<svg xmlns="http://www.w3.org/2000/svg" width="24" height="24" fill="none" viewBox="0 0 24 24">
  <path stroke="currentColor" strokeWidth="2" d="M1 5C1 4.17157 1.67157 3.5 2.5 3.5H14.5C15.3284 3.5 16 4.17157 16 5V12.4714C16 13.2999 15.3284 13.9714 14.5 13.9714H5.23918C4.83722 13.9714 4.45208 14.1328 4.17012 14.4192L1.76057 16.8674C1.6771 16.9522 1.56308 17 1.44408 17V17C1.19882 17 1 16.8012 1 16.5559V5Z"/>
  <path stroke="currentColor" strokeLinecap="round" strokeWidth="2" d="M10 18.4714H18.7608C19.1628 18.4714 19.5479 18.6328 19.8299 18.9192L22.2394 21.3674C22.3229 21.4522 22.4369 21.5 22.5559 21.5V21.5C22.8012 21.5 23 21.3012 23 21.0559V10.5C23 9.67157 22.3284 9 21.5 9H20.5"/>
</svg>
