<svg xmlns="http://www.w3.org/2000/svg" width="24" height="24" fill="none" viewBox="0 0 24 24">
  <path stroke="currentColor" strokeLinecap="round" strokeLinejoin="round" strokeWidth="2" d="M11.2727 22.25L13.7983 17.6197C13.8892 17.4531 13.7686 17.25 13.5789 17.25H10.4211C10.2314 17.25 10.1108 17.0469 10.2017 16.8803L12.7273 12.25"/>
  <path stroke="currentColor" strokeLinecap="round" strokeWidth="2" d="M5 17.75C2.92893 17.75 1.25 16.0711 1.25 14C1.25 12.2044 2.40962 10.9509 3.93287 10.4691C4.60406 10.2568 5.10395 9.53165 5.03038 8.83154C5.0103 8.64044 5 8.44642 5 8.25C5 5.21243 7.46243 2.75 10.5 2.75C12.7582 2.75 14.6985 4.11088 15.5455 6.05724C15.8344 6.72101 16.435 7.25 17.1589 7.25H17.5C20.3995 7.25 22.75 9.6005 22.75 12.5C22.75 14.9687 21.046 17.0395 18.75 17.6003"/>
</svg>
