<svg xmlns="http://www.w3.org/2000/svg" width="24" height="24" fill="none" viewBox="0 0 24 24">
  <path stroke="currentColor" strokeLinecap="round" strokeWidth="2" d="M3.5 17.438C2.17557 16.8593 1.25 15.5377 1.25 14C1.25 12.2044 2.40962 10.9509 3.93287 10.4691C4.60406 10.2568 5.10395 9.53165 5.03038 8.83154C5.0103 8.64044 5 8.44642 5 8.25C5 5.21243 7.46243 2.75 10.5 2.75C12.7582 2.75 14.6985 4.11088 15.5455 6.05724C15.8344 6.72101 16.435 7.25 17.1589 7.25H17.5C20.3995 7.25 22.75 9.6005 22.75 12.5C22.75 14.2841 21.8601 15.8603 20.5 16.809"/>
  <path stroke="currentColor" strokeLinecap="round" strokeWidth="2" d="M8 14.25V16.25"/>
  <path stroke="currentColor" strokeLinecap="round" strokeWidth="2" d="M16 14.25V16.25"/>
  <path stroke="currentColor" strokeLinecap="round" strokeWidth="2" d="M12 11.25V13.25"/>
  <path stroke="currentColor" strokeLinecap="round" strokeWidth="2" d="M8 20.25L8 22.25"/>
  <path stroke="currentColor" strokeLinecap="round" strokeWidth="2" d="M16 20.25L16 22.25"/>
  <path stroke="currentColor" strokeLinecap="round" strokeWidth="2" d="M12 17.25L12 19.25"/>
</svg>
