<svg xmlns="http://www.w3.org/2000/svg" width="24" height="24" fill="none" viewBox="0 0 24 24">
  <path stroke="currentColor" strokeLinecap="round" strokeWidth="2" d="M3.5 17.438C2.17557 16.8593 1.25 15.5377 1.25 14C1.25 12.2044 2.40962 10.9509 3.93287 10.4691C4.60406 10.2568 5.10395 9.53165 5.03038 8.83154C5.0103 8.64044 5 8.44642 5 8.25C5 5.21243 7.46243 2.75 10.5 2.75C12.7582 2.75 14.6985 4.11088 15.5455 6.05724C15.8344 6.72101 16.435 7.25 17.1589 7.25H17.5C20.3995 7.25 22.75 9.6005 22.75 12.5C22.75 14.2841 21.8601 15.8603 20.5 16.809"/>
  <path stroke="currentColor" strokeLinecap="round" strokeWidth="2" d="M12.2499 14.5L12.012 15.0056C11.5289 16.0322 11.5245 17.2199 11.9999 18.25C12.4754 19.2801 12.471 20.4678 11.9879 21.4944L11.7499 22M16.7499 14.75L16.4168 15.4578C15.9977 16.3485 16.0285 17.3858 16.4999 18.25C16.9713 19.1142 17.0022 20.1515 16.583 21.0422L16.2499 21.75M7.74992 14.75L7.41682 15.4578C6.99766 16.3485 7.02853 17.3858 7.49992 18.25C7.97131 19.1142 8.00218 20.1515 7.58302 21.0422L7.24992 21.75"/>
</svg>
