<svg xmlns="http://www.w3.org/2000/svg"   fill="none" viewBox="0 0 24 24">
  <path stroke="currentColor" strokeLinejoin="round" strokeWidth="2" d="M12.847 8.57818C12.7974 8.29485 12.7715 8.00336 12.7715 7.70582C12.7715 5.33179 14.4186 3.34247 16.6325 2.81837C16.7989 2.77898 16.9455 2.925 16.9296 3.09528C16.915 3.25143 16.9075 3.40965 16.9075 3.56962C16.9075 6.34341 19.1561 8.59202 21.9299 8.59202C22.0899 8.59202 22.2482 8.58453 22.4045 8.56989C22.5747 8.55393 22.7208 8.70052 22.6814 8.86695C22.2008 10.8977 20.4872 12.4517 18.3748 12.695"/>
  <path stroke="currentColor" strokeLinejoin="round" strokeWidth="2" d="M9.48441 7.25C11.6661 7.25 13.5072 8.72315 14.086 10.7384C14.2617 11.3503 14.7707 11.8586 15.4073 11.8586V11.8586C17.8057 11.8586 19.75 13.793 19.75 16.1792C19.75 18.5654 17.8057 20.4998 15.4073 20.4998L4.91052 20.5C3.02694 20.5 1.5 18.9525 1.5 17.0435C1.5 15.6809 2.30737 14.4887 3.4574 13.9278C4.13346 13.5981 4.69372 12.8413 4.69372 12.0891V12.0891C4.69372 9.41656 6.83859 7.25 9.48441 7.25Z"/>
</svg>
