<svg xmlns="http://www.w3.org/2000/svg" width="24" height="24" fill="none" viewBox="0 0 24 24">
  <path stroke="currentColor" strokeWidth="2" d="M7.07436 18.8043C8.43227 19.8668 10.1422 20.5 12 20.5C13.8566 20.5 15.5655 19.8676 16.923 18.8063M4.07848 13.625C4.02675 13.2575 4 12.8819 4 12.5C4 9.14265 6.06817 6.26832 9 5.08154M15 5.08154C17.9318 6.26832 20 9.14265 20 12.5C20 12.8819 19.9732 13.2574 19.9215 13.625"/>
  <circle cx="12" cy="5" r="3" stroke="currentColor" strokeWidth="2"/>
  <path stroke="currentColor" strokeWidth="2" d="M4.0005 13.6534C5.43538 12.825 7.27015 13.3166 8.09858 14.7515C8.927 16.1864 8.43538 18.0211 7.0005 18.8496C5.56562 19.678 3.73085 19.1864 2.90242 17.7515C2.074 16.3166 2.56562 14.4818 4.0005 13.6534Z"/>
  <path stroke="currentColor" strokeWidth="2" d="M17.0005 13.6534C18.4354 12.825 20.2701 13.3166 21.0986 14.7515C21.927 16.1864 21.4354 18.0211 20.0005 18.8496C18.5656 19.678 16.7309 19.1864 15.9024 17.7515C15.074 16.3166 15.5656 14.4818 17.0005 13.6534Z"/>
</svg>
