<svg xmlns="http://www.w3.org/2000/svg"   fill="none" viewBox="0 0 24 24">
  <path stroke="currentColor" strokeLinejoin="round" strokeWidth="2" d="M12 22C17.2705 22 21.5888 17.9226 21.9723 12.75C22.0029 12.337 21.6616 12.0066 21.2532 11.9375C19.1542 11.5824 17.5556 9.75566 17.5556 7.55556C17.5556 7.49182 17.5569 7.42839 17.5596 7.36531C17.5693 7.13415 17.4943 6.90432 17.3307 6.74072L17.2593 6.66934C17.0957 6.50574 16.8659 6.43071 16.6347 6.44045C16.5716 6.4431 16.5082 6.44444 16.4444 6.44444C14.2443 6.44444 12.4176 4.84582 12.0625 2.74679C11.9934 2.33838 11.663 1.99707 11.25 2.0277C6.07743 2.41125 2 6.72946 2 12C2 17.5228 6.47715 22 12 22Z"/>
  <path stroke="currentColor" strokeLinecap="round" strokeWidth="2.5" d="M8 7.9751V8.02509"/>
  <path stroke="currentColor" strokeLinecap="round" strokeWidth="2.5" d="M14 11.9751V12.0251"/>
  <path stroke="currentColor" strokeLinecap="round" strokeWidth="2.5" d="M15 16.9751V17.0251"/>
  <path stroke="currentColor" strokeLinecap="round" strokeWidth="2.5" d="M9 14.9751V15.0251"/>
</svg>
