<svg xmlns="http://www.w3.org/2000/svg"   fill="none" viewBox="0 0 24 24">
  <path stroke="currentColor" strokeWidth="2" d="M5.5 16L18.5 16"/>
  <path stroke="currentColor" strokeWidth="2" d="M17 19.5L7 19.5C6.17157 19.5 5.5 18.8285 5.5 18L5.5 16.1847C5.5 16.062 5.48496 15.9398 5.45521 15.8209L3.09671 6.38685C3.04759 6.19035 3.19621 6 3.39876 6C3.46456 6 3.52866 6.02085 3.58188 6.05955L8.22314 9.43501C8.61775 9.722 9.17699 9.56174 9.3597 9.10931L11.4846 3.84772C11.5694 3.63758 11.7734 3.5 12 3.5C12.2266 3.5 12.4306 3.63758 12.5154 3.84772L14.6403 9.10931C14.823 9.56174 15.3823 9.722 15.7769 9.43501L20.4181 6.05955C20.4713 6.02085 20.5354 6 20.6012 6C20.8038 6 20.9524 6.19035 20.9033 6.38685L18.5448 15.8209C18.515 15.9398 18.5 16.062 18.5 16.1847L18.5 18C18.5 18.8284 17.8284 19.5 17 19.5Z"/>
</svg>
