<svg xmlns="http://www.w3.org/2000/svg"   fill="none" viewBox="0 0 24 24">
  <path stroke="currentColor" strokeLinecap="round" strokeWidth="2" d="M12 22V16"/>
  <path stroke="currentColor" strokeLinecap="round" strokeWidth="2" d="M7 22V22C7 21.5462 7.27387 21.1372 7.69351 20.9644L10.9756 19.613C11.1568 19.5384 11.3508 19.5 11.5467 19.5H12.4533C12.6492 19.5 12.8432 19.5384 13.0244 19.613L16.3065 20.9644C16.7261 21.1372 17 21.5462 17 22V22"/>
  <path stroke="currentColor" strokeWidth="2" d="M7 12H17"/>
  <path stroke="currentColor" strokeLinecap="round" strokeWidth="2" d="M2 10H2.75C3.16421 10 3.5 10.3358 3.5 10.75V13.25C3.5 13.6642 3.83579 14 4.25 14H7"/>
  <path stroke="currentColor" strokeLinecap="round" strokeWidth="2" d="M22 10H21.25C20.8358 10 20.5 10.3358 20.5 10.75V13.25C20.5 13.6642 20.1642 14 19.75 14H17"/>
  <path stroke="currentColor" strokeLinecap="square" strokeWidth="2" d="M16.5607 14.4393C16.842 14.158 17 13.7765 17 13.3787V12.0555C17 11.5194 16.9569 10.9841 16.8711 10.4548L15.8405 4.09982C15.6442 2.88939 14.599 2 13.3727 2H10.6273C9.40101 2 8.35577 2.88939 8.15949 4.09982L7.12895 10.4548C7.04312 10.9841 7 11.5194 7 12.0555V13.3787C7 13.7765 7.15803 14.158 7.43934 14.4393L8.56066 15.5607C8.84196 15.842 9.2235 16 9.62132 16H14.3787C14.7765 16 15.158 15.842 15.4393 15.5607L16.5607 14.4393Z"/>
</svg>
