<svg xmlns="http://www.w3.org/2000/svg"   fill="none" viewBox="0 0 24 24">
  <path stroke="currentColor" strokeLinecap="square" strokeLinejoin="round" strokeWidth="2" d="M20.2498 6.24977L19.8052 5.80523C19.2895 5.2895 18.59 4.99977 17.8607 4.99977L14.9998 4.99977L13.0604 3.06043C12.4746 2.47465 11.5249 2.47465 10.9391 3.06043L10.0604 3.93911C9.47465 4.5249 9.47465 5.47465 10.0604 6.06043L11.9998 7.99977L11.9998 10.8607C11.9998 11.59 12.2895 12.2895 12.8052 12.8052L13.2498 13.2498L20.2498 6.24977Z"/>
  <path stroke="currentColor" strokeLinecap="round" strokeWidth="2" d="M3.5 22H17"/>
  <path stroke="currentColor" strokeWidth="2" d="M12 22L5.06066 15.0607C4.47487 14.4749 4.47487 13.5251 5.06066 12.9393L11 7"/>
  <path stroke="currentColor" strokeLinecap="round" strokeWidth="2" d="M20.1875 13.1875L20.875 13.875"/>
  <path stroke="currentColor" strokeLinecap="round" strokeWidth="2" d="M21.75 10H22.75"/>
  <path stroke="currentColor" strokeLinecap="round" strokeWidth="2" d="M17 14.75V15.75"/>
</svg>
