<svg xmlns="http://www.w3.org/2000/svg" width="24" height="24" fill="none" viewBox="0 0 24 24">
  <path stroke="currentColor" strokeLinecap="square" strokeWidth="2" d="M16.7391 3H7.26079C6.78256 3 6.33299 3.22803 6.05049 3.6139L2.04836 9.08028C1.65039 9.62386 1.66364 10.3661 2.08075 10.8951L11.3928 22.7055C11.5394 22.8915 11.7631 23 11.9999 23C12.2368 23 12.4605 22.8915 12.6071 22.7055L21.9192 10.8951C22.3364 10.3661 22.3496 9.62385 21.9516 9.08027L17.9494 3.61389C17.6669 3.22803 17.2173 3 16.7391 3Z"/>
  <path stroke="currentColor" strokeWidth="1.75" d="M2 10H22"/>
  <path stroke="currentColor" strokeWidth="1.75" d="M11.75 23L8.59419 10.3768C8.53242 10.1297 8.53458 9.8709 8.60048 9.62486L10.375 3"/>
  <path stroke="currentColor" strokeWidth="1.75" d="M12.25 23L15.4058 10.3768C15.4676 10.1297 15.4654 9.8709 15.3995 9.62486L13.625 3"/>
</svg>
