<svg xmlns="http://www.w3.org/2000/svg"   fill="none" viewBox="0 0 24 24">
  <path stroke="currentColor" strokeLinecap="round" strokeWidth="2" d="M7.25 2.75H4.25C3.42157 2.75 2.75 3.42157 2.75 4.25V7.25"/>
  <path stroke="currentColor" strokeLinecap="round" strokeWidth="2" d="M16.75 2.75H19.75C20.5784 2.75 21.25 3.42157 21.25 4.25V7.25"/>
  <path stroke="currentColor" strokeLinecap="round" strokeWidth="2" d="M2.75 16.75L2.75 19.75C2.75 20.5784 3.42157 21.25 4.25 21.25L7.25 21.25"/>
  <path stroke="currentColor" strokeLinecap="round" strokeWidth="2" d="M21.25 16.75L21.25 19.75C21.25 20.5784 20.5784 21.25 19.75 21.25L16.75 21.25"/>
  <path stroke="currentColor" strokeLinecap="square" strokeWidth="1.875" d="M7.5 7.5V16.5C7.5 16.9142 7.83579 17.25 8.25 17.25H15.75C16.1642 17.25 16.5 16.9142 16.5 16.5V9.56066C16.5 9.36175 16.421 9.17098 16.2803 9.03033L14.2197 6.96967C14.079 6.82902 13.8883 6.75 13.6893 6.75H8.25C7.83579 6.75 7.5 7.08579 7.5 7.5Z"/>
  <path stroke="currentColor" strokeLinecap="round" strokeWidth="1.75" d="M11 13.75L13 13.75"/>
  <path stroke="currentColor" strokeLinecap="round" strokeWidth="1.75" d="M11 10.5L13 10.5"/>
</svg>
