<svg xmlns="http://www.w3.org/2000/svg" width="24" height="24" fill="none" viewBox="0 0 24 24">
  <path stroke="currentColor" strokeWidth="2" d="M12 4.5C10.7608 4.5 9.57431 4.70673 8.47918 5.08929C8.1949 5.1886 7.87608 5.12608 7.66315 4.91315L4.86932 2.11932C4.79292 2.04292 4.6893 2 4.58126 2C4.38829 2 4.22247 2.13311 4.18503 2.32241C3.98754 3.32101 3.39179 6.47452 3.12803 9.44614C3.11895 9.54845 3.08906 9.64751 3.04187 9.73874C2.37502 11.0279 2 12.4982 2 14.0833C2 19.5602 6.47715 22 12 22C17.5228 22 22 19.5602 22 14.0833C22 12.4982 21.625 11.0279 20.9581 9.73874C20.9109 9.64751 20.8811 9.54845 20.872 9.44614C20.6082 6.47452 20.0125 3.32101 19.815 2.32241C19.7775 2.13311 19.6117 2 19.4187 2C19.3107 2 19.2071 2.04292 19.1307 2.11932L16.3369 4.91315C16.1239 5.12608 15.8051 5.1886 15.5208 5.08929C14.4257 4.70673 13.2392 4.5 12 4.5Z"/>
  <path stroke="currentColor" strokeLinecap="round" strokeWidth="1.75" d="M12 18L11.1737 18.3615C10.424 18.6895 9.57281 18.697 8.81742 18.3823L8.5 18.25M12 18V16M12 18L12.8263 18.3615C13.576 18.6895 14.4272 18.697 15.1826 18.3823L15.5 18.25M10.875 14.5L12 16M12 16L13.125 14.5"/>
  <path stroke="currentColor" strokeLinecap="square" strokeWidth="1.75" d="M2.5 13.375L6.03996 14.7427C7.27018 15.218 8.6689 15.061 9.77152 14.3374C11.1132 13.4569 12.8682 13.4447 14.2099 14.3252C15.3291 15.0597 16.7402 15.1902 17.9751 14.6732L21.375 13.25"/>
  <path stroke="currentColor" strokeLinecap="round" strokeWidth="3" d="M8 10.975V11.025"/>
  <path stroke="currentColor" strokeLinecap="round" strokeWidth="3" d="M16 10.975V11.025"/>
</svg>
