<svg xmlns="http://www.w3.org/2000/svg" width="24" height="24" fill="none" viewBox="0 0 24 24">
  <path stroke="currentColor" strokeWidth="1.875" d="M1.47464 8.64029L11.3417 3.82147C11.7571 3.61861 12.2429 3.61861 12.6583 3.82147L22.5254 8.64029C22.6628 8.70742 22.75 8.84702 22.75 9C22.75 9.15298 22.6628 9.29258 22.5254 9.35971L12.6583 14.1785C12.2429 14.3814 11.7571 14.3814 11.3417 14.1785L1.47464 9.35971C1.33718 9.29258 1.25 9.15298 1.25 9C1.25 8.84702 1.33718 8.70742 1.47464 8.64029Z"/>
  <path stroke="currentColor" strokeLinecap="round" strokeWidth="2" d="M4.5 11.125V15.6965C4.5 17.7971 7.85786 19.5 12 19.5C12.6926 19.5 13.3633 19.4524 14 19.3633"/>
  <path stroke="currentColor" strokeLinecap="round" strokeWidth="1.875" d="M17.75 17.375V11.375L12.625 8.875"/>
</svg>
