<svg xmlns="http://www.w3.org/2000/svg"   fill="none" viewBox="0 0 24 24">
  <path stroke="currentColor" strokeWidth="2" d="M22 18V19C22 19.8284 21.3284 20.5 20.5 20.5H17.2127C16.9112 20.5 16.6168 20.4092 16.3677 20.2393L6.1323 13.2607C5.88322 13.0908 5.58876 13 5.28729 13H3.5C2.67157 13 2 12.3284 2 11.5V10.5C2 9.67157 2.67157 9 3.5 9H6.78729C7.08876 9 7.38322 9.09083 7.6323 9.26066L17.8677 16.2393C18.1168 16.4092 18.4112 16.5 18.7127 16.5H20.5C21.3284 16.5 22 17.1716 22 18Z"/>
  <circle cx="15" cy="3.25" r="1.75" stroke="currentColor" strokeWidth="1.875"/>
  <path stroke="currentColor" strokeLinecap="round" strokeLinejoin="round" strokeWidth="2" d="M19 12.5L17.5 11.5L17.1014 9.10848C17.0355 8.71274 16.8475 8.3475 16.5638 8.0638C16.2028 7.70281 15.7132 7.5 15.2027 7.5H14.7973C14.2868 7.5 13.7972 7.70281 13.4362 8.0638C13.1525 8.3475 12.9645 8.71274 12.8986 9.10848L12.375 12.25"/>
</svg>
