<svg xmlns="http://www.w3.org/2000/svg" width="24" height="24" fill="none" viewBox="0 0 24 24">
  <path stroke="currentColor" strokeWidth="2" d="M2 18V19C2 19.8284 2.67157 20.5 3.5 20.5H6.78729C7.08876 20.5 7.38322 20.4092 7.6323 20.2393L17.8677 13.2607C18.1168 13.0908 18.4112 13 18.7127 13H20.5C21.3284 13 22 12.3284 22 11.5V10.5C22 9.67157 21.3284 9 20.5 9H17.2127C16.9112 9 16.6168 9.09083 16.3677 9.26066L6.1323 16.2393C5.88322 16.4092 5.58876 16.5 5.28729 16.5H3.5C2.67157 16.5 2 17.1716 2 18Z"/>
  <circle cx="9" cy="3.25" r="1.75" stroke="currentColor" strokeWidth="1.875"/>
  <path stroke="currentColor" strokeLinecap="round" strokeLinejoin="round" strokeWidth="2" d="M6.125 16.125L6.9263 9.14223C6.97402 8.72636 7.16111 8.33889 7.45711 8.04289C7.80472 7.69528 8.27617 7.5 8.76777 7.5H9C9.64029 7.5 10.2544 7.75435 10.7071 8.20711L10.875 8.375L12.375 7.375"/>
</svg>
