<svg xmlns="http://www.w3.org/2000/svg"   fill="none" viewBox="0 0 24 24">
  <path stroke="currentColor" strokeWidth="2" d="M12 12C12 11.138 12.3424 10.3114 12.9519 9.7019C13.5614 9.09241 14.388 8.75 15.25 8.75C16.112 8.75 16.9386 9.09241 17.5481 9.7019C18.1576 10.3114 18.5 11.138 18.5 12C18.5 12.862 18.1576 13.6886 17.5481 14.2981C16.9386 14.9076 16.112 15.25 15.25 15.25C14.388 15.25 13.5614 14.9076 12.9519 14.2981C12.3424 13.6886 12 12.862 12 12V12Z"/>
  <path stroke="currentColor" strokeWidth="2" d="M5.5 18.5C5.5 17.638 5.84241 16.8114 6.4519 16.2019C7.0614 15.5924 7.88805 15.25 8.75 15.25H12V18.5C12 19.362 11.6576 20.1886 11.0481 20.7981C10.4386 21.4076 9.61195 21.75 8.75 21.75C7.88805 21.75 7.0614 21.4076 6.4519 20.7981C5.84241 20.1886 5.5 19.362 5.5 18.5Z"/>
  <path stroke="currentColor" strokeWidth="2" d="M12 2.25V8.75H15.25C16.112 8.75 16.9386 8.40759 17.5481 7.7981C18.1576 7.1886 18.5 6.36195 18.5 5.5C18.5 4.63805 18.1576 3.8114 17.5481 3.2019C16.9386 2.59241 16.112 2.25 15.25 2.25L12 2.25Z"/>
  <path stroke="currentColor" strokeWidth="2" d="M5.5 5.5C5.5 6.36195 5.84241 7.1886 6.4519 7.7981C7.0614 8.40759 7.88805 8.75 8.75 8.75H12V2.25H8.75C7.88805 2.25 7.0614 2.59241 6.4519 3.2019C5.84241 3.8114 5.5 4.63805 5.5 5.5Z"/>
  <path stroke="currentColor" strokeWidth="2" d="M5.5 12C5.5 12.862 5.84241 13.6886 6.4519 14.2981C7.0614 14.9076 7.88805 15.25 8.75 15.25H12V8.75H8.75C7.88805 8.75 7.0614 9.09241 6.4519 9.7019C5.84241 10.3114 5.5 11.138 5.5 12Z"/>
</svg>
