<svg xmlns="http://www.w3.org/2000/svg"   fill="none" viewBox="0 0 24 24">
  <path stroke="currentColor" strokeWidth="2" d="M12 22C16.6944 22 20.5 18.1944 20.5 13.5C20.5 10.0645 19.3946 5.82476 13.8963 2.09836C13.8022 2.03459 13.6894 2 13.5757 2C13.2577 2 13.0016 2.25615 13.0063 2.57406C13.0394 4.82451 13.0706 9.38117 9.36669 12.8909C9.29283 12.9609 9.19351 13 9.09176 13C8.95634 13 8.82914 12.9329 8.7583 12.8175C7.63135 10.9816 7.3403 8.29818 7.27052 7.34866C7.25621 7.15398 7.09512 7 6.89992 7C6.80393 7 6.71114 7.0387 6.64362 7.10693C4.46845 9.30454 3.5 10.9987 3.5 13.5C3.5 18.1944 7.30558 22 12 22Z"/>
</svg>
