<svg xmlns="http://www.w3.org/2000/svg" width="24" height="24" fill="none" viewBox="0 0 24 24">
  <path stroke="currentColor" strokeWidth="2" d="M9 12H7.75C5.40279 12 3.5 10.0972 3.5 7.75C3.5 5.40279 5.40279 3.5 7.75 3.5C10.0972 3.5 12 5.40279 12 7.75V9"/>
  <path stroke="currentColor" strokeWidth="2" d="M15 12H16.25C18.5972 12 20.5 10.0972 20.5 7.75C20.5 5.40279 18.5972 3.5 16.25 3.5C13.9028 3.5 12 5.40279 12 7.75V9"/>
  <path stroke="currentColor" strokeWidth="2" d="M12 15V16.25C12 18.5972 10.0972 20.5 7.75 20.5C5.40279 20.5 3.5 18.5972 3.5 16.25C3.5 13.9028 5.40279 12 7.75 12H9"/>
  <path stroke="currentColor" strokeWidth="2" d="M12 15V16.25C12 18.5972 13.9028 20.5 16.25 20.5C18.5972 20.5 20.5 18.5972 20.5 16.25C20.5 13.9028 18.5972 12 16.25 12H15"/>
  <circle cx="12" cy="12" r="3" stroke="currentColor" strokeWidth="2"/>
  <path stroke="currentColor" strokeLinecap="round" strokeWidth="2" d="M9.75 14.25L8 16"/>
  <path stroke="currentColor" strokeLinecap="round" strokeWidth="2" d="M14.25 14.25L16 16"/>
  <path stroke="currentColor" strokeLinecap="round" strokeWidth="2" d="M16 8L14.25 9.75"/>
  <path stroke="currentColor" strokeLinecap="round" strokeWidth="2" d="M8 8L9.75 9.75"/>
</svg>
