<svg xmlns="http://www.w3.org/2000/svg"   fill="none" viewBox="0 0 24 24">
  <path stroke="currentColor" strokeLinejoin="round" strokeWidth="1.875" d="M5.42252 16L3.79498 16C3.6405 16 3.52299 16.1387 3.54839 16.2911L3.66427 16.9864C4.14646 19.8795 6.6496 22 9.58263 22L12.4999 22L10.2068 18.5605C9.14037 16.9608 7.34505 16 5.42252 16Z"/>
  <path stroke="currentColor" strokeLinejoin="round" strokeWidth="1.875" d="M18.5251 16L20.1526 16C20.3071 16 20.4246 16.1387 20.3992 16.2911L20.2833 16.9864C19.8012 19.8795 17.298 22 14.365 22L11.4478 22L13.7408 18.5605C14.8072 16.9608 16.6026 16 18.5251 16Z"/>
  <path stroke="currentColor" strokeWidth="2" d="M12 22V12"/>
  <path stroke="currentColor" strokeLinecap="square" strokeWidth="2" d="M10.9151 12H13.0847C15.1449 12 16.85 10.3981 16.9785 8.3419C16.9928 8.11447 16.9857 7.8862 16.9574 7.66008L16.2928 2.34299C16.2683 2.14704 16.1017 2 15.9043 2C15.8051 2 15.7096 2.03764 15.6371 2.10531L13.0234 4.54475C12.4471 5.08264 11.5527 5.08264 10.9764 4.54476L8.36274 2.10531C8.29024 2.03764 8.19475 2 8.09558 2C7.8981 2 7.73153 2.14704 7.70704 2.34299L7.0424 7.66007C7.01414 7.8862 7.00707 8.11447 7.02128 8.3419C7.1498 10.3981 8.85493 12 10.9151 12Z"/>
</svg>
