<svg xmlns="http://www.w3.org/2000/svg"   fill="none" viewBox="0 0 24 24">
  <path stroke="currentColor" strokeWidth="2" d="M9 12C9 9.08789 10.06 6.88248 11.0225 5.5767C11.5238 4.89669 12.4762 4.89669 12.9775 5.5767C13.94 6.88248 15 9.08789 15 12C15 14.9121 13.94 17.1175 12.9775 18.4233C12.4762 19.1033 11.5238 19.1033 11.0225 18.4233C10.06 17.1175 9 14.9121 9 12Z"/>
  <path stroke="currentColor" strokeWidth="2" d="M11.9848 19.4848C10.7663 19.5955 7.66465 19.1525 5.00611 16.4939C3.17382 14.6616 2.43926 12.7453 2.15965 11.2401C1.98314 10.2899 2.78985 9.48314 3.7401 9.65965C5.24532 9.93926 7.16162 10.6738 8.99392 12.5061"/>
  <path stroke="currentColor" strokeWidth="2" d="M12.0151 19.4848C13.2336 19.5955 16.3353 19.1524 18.9938 16.4939C20.8261 14.6616 21.5606 12.7453 21.8402 11.2401C22.0167 10.2899 21.21 9.48314 20.2598 9.65965C18.7546 9.93925 16.8383 10.6738 15.006 12.5061"/>
  <path stroke="currentColor" strokeLinecap="round" strokeWidth="3" d="M5.5 5.47498V5.52497"/>
  <path stroke="currentColor" strokeLinecap="round" strokeWidth="3" d="M18.5 5.47498V5.52497"/>
</svg>
