<svg xmlns="http://www.w3.org/2000/svg" width="24" height="24" fill="none" viewBox="0 0 24 24">
  <path stroke="currentColor" strokeWidth="2" d="M12 4.75C12 4.33579 12.3358 4 12.75 4H14.4393C14.6383 4 14.829 4.07902 14.9697 4.21967L16.5303 5.78033C16.671 5.92098 16.8617 6 17.0607 6H19.75C20.1642 6 20.5 6.33579 20.5 6.75V10.25C20.5 10.6642 20.1642 11 19.75 11H12.75C12.3358 11 12 10.6642 12 10.25V4.75Z"/>
  <path stroke="currentColor" strokeWidth="2" d="M12 15.75C12 15.3358 12.3358 15 12.75 15H14.4393C14.6383 15 14.829 15.079 14.9697 15.2197L16.5303 16.7803C16.671 16.921 16.8617 17 17.0607 17H19.75C20.1642 17 20.5 17.3358 20.5 17.75V21.25C20.5 21.6642 20.1642 22 19.75 22H12.75C12.3358 22 12 21.6642 12 21.25V15.75Z"/>
  <path stroke="currentColor" strokeLinecap="round" strokeLinejoin="round" strokeWidth="2" d="M8 18.5L4.25 18.5C3.83579 18.5 3.5 18.1642 3.5 17.75L3.5 2"/>
  <path stroke="currentColor" strokeLinecap="round" strokeLinejoin="round" strokeWidth="2" d="M8 7.5L3.5 7.5"/>
</svg>
