<svg xmlns="http://www.w3.org/2000/svg" width="24" height="24" fill="none" viewBox="0 0 24 24">
  <path stroke="currentColor" strokeLinecap="round" strokeWidth="2.5" d="M9 7.75V11.75"/>
  <path stroke="currentColor" strokeLinecap="round" strokeWidth="2.5" d="M7 9.75L11 9.75"/>
  <path stroke="currentColor" strokeLinecap="round" strokeWidth="3.25" d="M14.875 8.1001V8.15009"/>
  <path stroke="currentColor" strokeLinecap="round" strokeWidth="3.25" d="M17.125 11.3501V11.4001"/>
  <path stroke="currentColor" strokeWidth="2" d="M2 17.4874V18C2 18.8284 2.67157 19.5 3.5 19.5H4.76637C5.22926 19.5 5.66622 19.2863 5.9504 18.9209L8.5496 15.5791C8.83378 15.2137 9.27074 15 9.73363 15H14.2664C14.7293 15 15.1662 15.2137 15.4504 15.5791L18.0496 18.9209C18.3338 19.2863 18.7707 19.5 19.2336 19.5H20.5C21.3284 19.5 22 18.8284 22 18V17.4874C22 15.8312 21.8825 14.1771 21.6482 12.5376L21.3729 10.6103C21.1308 8.91594 20.3458 7.34576 19.1355 6.13548C18.0883 5.0883 16.668 4.5 15.1871 4.5H8.81292C7.33198 4.5 5.9117 5.0883 4.86452 6.13548C3.65424 7.34576 2.86915 8.91593 2.6271 10.6103L2.35177 12.5376C2.11755 14.1771 2 15.8312 2 17.4874Z"/>
</svg>
