<svg xmlns="http://www.w3.org/2000/svg" width="24" height="24" fill="none" viewBox="0 0 24 24">
  <path stroke="currentColor" strokeLinecap="round" strokeWidth="2" d="M20.0906 10.8862C20.3564 11.7096 20.5 12.588 20.5 13.4999C20.5 18.1944 16.6944 21.9999 12 21.9999C7.30558 21.9999 3.5 18.1944 3.5 13.4999C3.5 10.2516 5.32211 7.42888 8 5.99805"/>
  <path stroke="currentColor" strokeLinecap="round" strokeWidth="2" d="M16.4218 12.6606C16.4732 12.9326 16.5 13.2132 16.5 13.5001C16.5 15.9854 14.4853 18.0001 12 18.0001C9.51472 18.0001 7.5 15.9854 7.5 13.5001C7.5 12.7563 7.68047 12.0546 8 11.4365"/>
  <path stroke="currentColor" strokeLinecap="round" strokeWidth="2" d="M12 13.5V2.38469C12 2.20378 12.1862 2.08276 12.3515 2.15624L20.486 5.77155C20.6839 5.85953 20.6839 6.14047 20.486 6.22845L12 10"/>
</svg>
