<svg xmlns="http://www.w3.org/2000/svg" width="24" height="24" fill="none" viewBox="0 0 24 24">
  <path stroke="currentColor" strokeWidth="2" d="M3.5 13.25L9 7.75L7.31066 6.06066C6.72487 5.47487 5.77513 5.47487 5.18934 6.06066L1.81066 9.43934C1.22487 10.0251 1.22487 10.9749 1.81066 11.5607L3.5 13.25Z"/>
  <path stroke="currentColor" strokeWidth="2" d="M17 16.75L16.2574 17.4926C15.1321 18.6179 13.5913 19.25 12 19.25V19.25C10.4087 19.25 8.86786 18.6179 7.74264 17.4926L3.5 13.25L9 7.75L10.8787 7.75C11.2765 7.75 11.658 7.90804 11.9393 8.18934L13.25 9.5"/>
  <path stroke="currentColor" strokeWidth="2" d="M15 7.75L10.4419 12.3081C10.159 12.591 10 12.9748 10 13.375V13.375C10 13.7752 10.159 14.159 10.4419 14.4419L10.5 14.5C10.8201 14.8201 11.2544 15 11.7071 15L14.6287 15C15.0265 15 15.408 15.158 15.6893 15.4393L17 16.75L20.5 13.25"/>
  <path stroke="currentColor" strokeWidth="2" d="M20.5 13.25L15 7.75L16.6893 6.06066C17.2751 5.47487 18.2249 5.47487 18.8107 6.06066L22.1893 9.43934C22.7751 10.0251 22.7751 10.9749 22.1893 11.5607L20.5 13.25Z"/>
</svg>
