<svg xmlns="http://www.w3.org/2000/svg" width="24" height="24" fill="none" viewBox="0 0 24 24">
  <path stroke="currentColor" strokeLinecap="round" strokeLinejoin="bevel" strokeWidth="1.75" d="M2.75 4.25L8 4.25"/>
  <path stroke="currentColor" strokeLinecap="round" strokeWidth="1.75" d="M4.25 1.75L2.28032 3.71967C1.98742 4.01256 1.98742 4.48744 2.28032 4.78033L4.25 6.75"/>
  <path stroke="currentColor" strokeLinejoin="round" strokeWidth="2" d="M15.5002 13V6.25C15.5002 5.14543 14.6048 4.25 13.5002 4.25C12.3956 4.25 11.5002 5.14543 11.5002 6.25V16.1464C11.5002 16.3692 11.2309 16.4807 11.0734 16.3232L8.50021 13.75C7.74082 12.9906 6.5096 12.9906 5.75021 13.75C4.99082 14.5094 4.99082 15.7406 5.75021 16.5L9.94996 20.6997C11.2627 22.0125 13.0432 22.75 14.8997 22.75H16.5253C18.11 22.75 19.6297 22.1205 20.7502 21C21.8707 19.8795 22.5002 18.3598 22.5002 16.7751V13.5C22.5002 12.5335 21.7167 11.75 20.7502 11.75C19.7837 11.75 19.0002 12.5335 19.0002 13.5V14"/>
  <path stroke="currentColor" strokeLinecap="round" strokeWidth="2" d="M19 14.75V12C19 11.0335 18.2165 10.25 17.25 10.25C16.2835 10.25 15.5 11.0335 15.5 12V13.75"/>
</svg>
