<svg xmlns="http://www.w3.org/2000/svg" width="24" height="24" fill="none" viewBox="0 0 24 24">
  <path stroke="currentColor" strokeLinejoin="round" strokeWidth="2" d="M12.0002 10.5V4C12.0002 2.89543 11.1048 2 10.0002 2C8.89564 2 8.00021 2.89543 8.00021 4V14.3964C8.00021 14.6192 7.73092 14.7307 7.57343 14.5732L6.00021 13C5.24082 12.2406 4.0096 12.2406 3.25021 13C2.49082 13.7594 2.49082 14.9906 3.25021 15.75L7.44996 19.9497C8.76271 21.2625 10.5432 22 12.3997 22H14.0253C15.61 22 17.1297 21.3705 18.2502 20.25C19.3707 19.1295 20.0002 17.6098 20.0002 16.0251V13C20.0002 11.8954 19.1048 11 18.0002 11C16.8956 11 16.0002 11.8954 16.0002 13V14"/>
  <path stroke="currentColor" strokeWidth="2" d="M16 14V11.5C16 10.3954 15.1046 9.5 14 9.5C12.8954 9.5 12 10.3954 12 11.5V13"/>
  <path stroke="currentColor" strokeLinecap="round" strokeWidth="2" d="M16 14V12"/>
  <path stroke="currentColor" strokeLinecap="round" strokeWidth="2" d="M12 13V10.5"/>
</svg>
