<svg xmlns="http://www.w3.org/2000/svg"   fill="none" viewBox="0 0 24 24">
  <circle cx="12" cy="2.75" r="1.75" stroke="currentColor" strokeWidth="1.75"/>
  <path stroke="currentColor" strokeWidth="1.875" d="M10.4244 7.04261C10.8925 6.84942 11.3939 6.75 11.9003 6.75H12.0997C12.6061 6.75 13.1075 6.84942 13.5756 7.04261L13.8053 7.13738C14.0801 7.25081 14.3324 7.4125 14.5503 7.61481L14.5853 7.64738C14.7031 7.75669 14.8077 7.87927 14.8972 8.01266C15.1272 8.35543 15.25 8.75887 15.25 9.17165V9.51754C15.25 9.78399 15.034 10 14.7675 10H9.23246C8.96601 10 8.75 9.78399 8.75 9.51754V9.17165C8.75 8.75887 8.87281 8.35543 9.10279 8.01266C9.1923 7.87927 9.29695 7.75669 9.41466 7.64738L9.44973 7.61481C9.6676 7.4125 9.91991 7.25081 10.1947 7.13738L10.4244 7.04261Z"/>
  <path stroke="currentColor" strokeLinecap="round" strokeWidth="2" d="M12 23V18.2426C12 17.447 11.6839 16.6839 11.1213 16.1213L8.82452 13.8245C8.45666 13.4567 7.95774 13.25 7.4375 13.25H7.4205C6.91115 13.25 6.42266 13.4523 6.0625 13.8125C5.70234 14.1727 5.5 14.6611 5.5 15.1705M5.5 15.1705V7.75C5.5 6.64543 4.60457 5.75 3.5 5.75C2.39543 5.75 1.5 6.64543 1.5 7.75V16.5074C1.5 17.303 1.81607 18.0661 2.37868 18.6287L5.04289 21.2929C5.49565 21.7456 5.75 22.3597 5.75 23M5.5 15.1705V15.1875M5.5 15.1875V15.25M5.5 15.1875C5.5 15.7077 5.70666 16.2067 6.07452 16.5745L8 18.5"/>
  <path stroke="currentColor" strokeLinecap="round" strokeWidth="2" d="M12 23V18.2426C12 17.447 12.3161 16.6839 12.8787 16.1213L15.1755 13.8245C15.5433 13.4567 16.0423 13.25 16.5625 13.25H16.5795C17.0889 13.25 17.5773 13.4523 17.9375 13.8125C18.2977 14.1727 18.5 14.6611 18.5 15.1705M18.5 15.1705V7.75C18.5 6.64543 19.3954 5.75 20.5 5.75C21.6046 5.75 22.5 6.64543 22.5 7.75V16.5074C22.5 17.303 22.1839 18.0661 21.6213 18.6287L18.9571 21.2929C18.5044 21.7456 18.25 22.3597 18.25 23M18.5 15.1705V15.1875M18.5 15.1875V15.25M18.5 15.1875C18.5 15.7077 18.2933 16.2067 17.9255 16.5745L16 18.5"/>
</svg>
