<svg xmlns="http://www.w3.org/2000/svg"   fill="none" viewBox="0 0 24 24">
  <path stroke="currentColor" strokeLinecap="round" strokeWidth="2" d="M5.875 3L5.94562 2.92938C7.02091 1.85409 8.47931 1.25 10 1.25C11.5207 1.25 12.9791 1.85409 14.0544 2.92938L14.125 3"/>
  <path stroke="currentColor" strokeLinejoin="round" strokeWidth="2" d="M12.0002 13V7.25C12.0002 6.14543 11.1048 5.25 10.0002 5.25C8.89564 5.25 8.00021 6.14543 8.00021 7.25V15.1464C8.00021 15.3692 7.73092 15.4807 7.57343 15.3232L6.00021 13.75C5.24082 12.9906 4.0096 12.9906 3.25021 13.75C2.49082 14.5094 2.49082 15.7406 3.25021 16.5L7.44996 20.6997C8.76271 22.0125 10.5432 22.75 12.3997 22.75H14.0253C15.61 22.75 17.1297 22.1205 18.2502 21C19.3707 19.8795 20.0002 18.3598 20.0002 16.7751V13.75C20.0002 12.6454 19.1048 11.75 18.0002 11.75C16.8956 11.75 16.0002 12.6454 16.0002 13.75V14"/>
  <path stroke="currentColor" strokeLinecap="round" strokeWidth="2" d="M16 14.75V12.25C16 11.1454 15.1046 10.25 14 10.25C12.8954 10.25 12 11.1454 12 12.25V13.75"/>
</svg>
