<svg xmlns="http://www.w3.org/2000/svg"   fill="none" viewBox="0 0 24 24">
  <path stroke="currentColor" strokeWidth="2" d="M2 19.25V15.25C2 14.8358 2.33579 14.5 2.75 14.5H5.5V20H2.75C2.33579 20 2 19.6642 2 19.25Z"/>
  <path stroke="currentColor" strokeLinejoin="round" strokeWidth="1.75" d="M15.527 6.59573C16.3896 7.47495 17.3959 8.4477 17.9881 9.0147C18.274 9.28839 18.7226 9.2898 19.0097 9.01739C19.6031 8.45426 20.611 7.48628 21.4804 6.5945C22.0461 6.01416 22.1545 5.15319 21.7828 4.44025C21.17 3.2647 19.4741 3.17932 18.7393 4.28701L18.5464 4.5778H18.4489L18.2511 4.27962C17.5185 3.1752 15.8277 3.26033 15.2166 4.43241C14.8431 5.14892 14.9565 6.01424 15.527 6.59573Z"/>
  <path stroke="currentColor" strokeLinecap="round" strokeWidth="2" d="M5.5 19.9999H9.41873C11.1325 19.9999 12.8391 19.7797 14.4967 19.3445L20.5078 17.7666C21.387 17.5358 22 16.7412 22 15.8322V15.7625C22 15.2742 21.806 14.8059 21.4608 14.4607C21.0178 14.0177 20.38 13.8304 19.7678 13.9634L17.0998 14.5434C15.7039 14.8469 14.2796 14.9999 12.8512 14.9999H11"/>
  <path stroke="currentColor" strokeWidth="2" d="M14 15V13.8473C14 13.2247 13.7527 12.6277 13.3125 12.1875C12.8723 11.7473 12.2753 11.5 11.6527 11.5H10.1569C9.09599 11.5 8.07857 11.9214 7.32843 12.6716L5.5 14.5"/>
</svg>
