<svg xmlns="http://www.w3.org/2000/svg"   fill="none" viewBox="0 0 24 24">
  <path stroke="currentColor" strokeLinecap="round" strokeWidth="1.875" d="M2.25 18.25L5.75 21.75"/>
  <path stroke="currentColor" strokeLinecap="round" strokeWidth="1.875" d="M19.25 1.75L22.25 4.75"/>
  <path stroke="currentColor" strokeLinecap="round" strokeWidth="2" d="M16.4193 14.9624L16.0606 14.6037C15.4979 14.0411 15.1819 13.278 15.1819 12.4824V9.39656C15.1819 8.99874 15.0238 8.61721 14.7425 8.3359L13.4141 7.00748C12.6331 6.22643 12.6331 4.9601 13.4141 4.17905C14.1952 3.398 15.4615 3.398 16.2425 4.17905L19.2027 7.1392C20.703 8.63949 21.5458 10.6743 21.5458 12.7961V13.361C21.5458 14.9523 20.9137 16.4785 19.7885 17.6037L17.639 19.7532C16.5185 20.8737 14.9987 21.5032 13.4141 21.5032C11.8295 21.5032 10.3097 20.8737 9.18923 19.7532L2.45395 13.0179C1.6729 12.2368 1.6729 10.9705 2.45395 10.1895C3.235 9.40841 4.50133 9.40841 5.28238 10.1895L9.17146 14.0785"/>
  <path stroke="currentColor" strokeLinecap="round" strokeWidth="2" d="M13.4141 7.00751L10.2321 3.82553C9.45104 3.04448 8.18471 3.04448 7.40366 3.82553C6.62261 4.60658 6.62261 5.87291 7.40366 6.65396L10.2321 9.48239"/>
  <path stroke="currentColor" strokeLinecap="round" strokeWidth="2" d="M9.17135 14.0784L3.5145 8.42154C2.73345 7.64049 2.73345 6.37416 3.5145 5.59311C4.29555 4.81206 5.56188 4.81206 6.34292 5.59311L10.9391 10.1893"/>
</svg>
