<svg xmlns="http://www.w3.org/2000/svg" width="24" height="24" fill="none" viewBox="0 0 24 24">
  <circle cx="18.75" cy="3.25" r="1.75" stroke="currentColor" strokeWidth="1.75"/>
  <path stroke="currentColor" strokeLinejoin="round" strokeWidth="1.875" d="M17.1744 7.54261C17.6425 7.34942 18.1439 7.25 18.6503 7.25H18.8497C19.3561 7.25 19.8575 7.34942 20.3256 7.54261L20.5553 7.63738C20.8301 7.75081 21.0824 7.9125 21.3003 8.11481L21.3353 8.14738C21.4531 8.25669 21.5577 8.37927 21.6472 8.51266C21.8772 8.85543 22 9.25887 22 9.67165V9.67165C22 10.1291 21.6291 10.5 21.1716 10.5H16.3284C15.8709 10.5 15.5 10.1291 15.5 9.67165V9.67165C15.5 9.25887 15.6228 8.85543 15.8528 8.51266C15.9423 8.37927 16.0469 8.25669 16.1647 8.14738L16.1997 8.11481C16.4176 7.9125 16.6699 7.75081 16.9447 7.63738L17.1744 7.54261Z"/>
  <path stroke="currentColor" strokeWidth="2" d="M2 20.25V16.25C2 15.8358 2.33579 15.5 2.75 15.5H5.5V21H2.75C2.33579 21 2 20.6642 2 20.25Z"/>
  <path stroke="currentColor" strokeLinecap="round" strokeWidth="2" d="M5.5 20.9999H9.41873C11.1325 20.9999 12.8391 20.7797 14.4967 20.3445L20.5078 18.7666C21.387 18.5358 22 17.7412 22 16.8322V16.7625C22 16.2742 21.806 15.8059 21.4608 15.4607C21.0178 15.0177 20.38 14.8304 19.7678 14.9634L17.0998 15.5434C15.7039 15.8469 14.2796 15.9999 12.8512 15.9999H11"/>
  <path stroke="currentColor" strokeWidth="2" d="M13 16V14.8473C13 14.2247 12.7527 13.6277 12.3125 13.1875C11.8723 12.7473 11.2753 12.5 10.6527 12.5H10.0625C9.06205 12.5 8.10257 12.8974 7.39515 13.6049L5.5 15.5"/>
</svg>
