<svg xmlns="http://www.w3.org/2000/svg"   fill="none" viewBox="0 0 24 24">
  <path stroke="currentColor" strokeLinecap="square" strokeLinejoin="round" strokeWidth="2" d="M19.5 15L17.6687 13.1687C17.2335 12.7335 16.9426 12.1749 16.8357 11.5687L15.7168 5.2288C15.578 4.44226 15.1313 3.74354 14.4757 3.28744L13.0112 2.26864C12.7598 2.09375 12.4608 2 12.1546 2H12V15.2574C12 16.053 12.3161 16.8161 12.8787 17.3787L15 19.5L19.5 15Z"/>
  <path stroke="currentColor" strokeLinecap="square" strokeLinejoin="round" strokeWidth="2" d="M4.5 15L6.33131 13.1687C6.76655 12.7335 7.05737 12.1749 7.16434 11.5687L8.28315 5.2288C8.42195 4.44226 8.86866 3.74354 9.52431 3.28744L10.9888 2.26864C11.2402 2.09375 11.5392 2 11.8454 2H12V15.2574C12 16.053 11.6839 16.8161 11.1213 17.3787L9 19.5L4.5 15Z"/>
  <path stroke="currentColor" strokeLinecap="square" strokeWidth="2" d="M19.5 15L15 19.5L16.4393 20.9393C17.0251 21.5251 17.9749 21.5251 18.5607 20.9393L20.9393 18.5607C21.5251 17.9749 21.5251 17.0251 20.9393 16.4393L19.5 15Z"/>
  <path stroke="currentColor" strokeLinecap="square" strokeWidth="2" d="M4.5 15L9 19.5L7.56066 20.9393C6.97487 21.5251 6.02513 21.5251 5.43934 20.9393L3.06066 18.5607C2.47487 17.9749 2.47487 17.0251 3.06066 16.4393L4.5 15Z"/>
</svg>
