<svg xmlns="http://www.w3.org/2000/svg"   fill="none" viewBox="0 0 24 24">
  <path stroke="currentColor" strokeLinejoin="round" strokeWidth="1.875" d="M8.81463 5.21962C9.75551 6.18931 10.8561 7.264 11.4855 7.87301C11.7722 8.15041 12.2242 8.15176 12.5121 7.87566C13.1429 7.27088 14.245 6.20181 15.1933 5.21829C16 4.41155 15.8564 3.22359 15.25 2.61717C14.3564 1.72356 13.109 1.86591 12.2564 2.71851L12 2.99092L11.7334 2.7105C11 1.86592 9.13677 1.60628 8.48209 2.87602C8.08187 3.65224 8.2034 4.58968 8.81463 5.21962Z"/>
  <path stroke="currentColor" strokeLinecap="round" strokeWidth="2" d="M12 23V18.2426C12 17.447 11.6839 16.6839 11.1213 16.1213L8.82452 13.8245C8.45666 13.4567 7.95774 13.25 7.4375 13.25H7.4205C6.91115 13.25 6.42266 13.4523 6.0625 13.8125C5.70234 14.1727 5.5 14.6611 5.5 15.1705M5.5 15.1705V7.75C5.5 6.64543 4.60457 5.75 3.5 5.75C2.39543 5.75 1.5 6.64543 1.5 7.75V16.5074C1.5 17.303 1.81607 18.0661 2.37868 18.6287L5.04289 21.2929C5.49565 21.7456 5.75 22.3597 5.75 23M5.5 15.1705V15.1875M5.5 15.1875V15.25M5.5 15.1875C5.5 15.7077 5.70666 16.2067 6.07452 16.5745L8 18.5"/>
  <path stroke="currentColor" strokeLinecap="round" strokeWidth="2" d="M12 23V18.2426C12 17.447 12.3161 16.6839 12.8787 16.1213L15.1755 13.8245C15.5433 13.4567 16.0423 13.25 16.5625 13.25H16.5795C17.0889 13.25 17.5773 13.4523 17.9375 13.8125C18.2977 14.1727 18.5 14.6611 18.5 15.1705M18.5 15.1705V7.75C18.5 6.64543 19.3954 5.75 20.5 5.75C21.6046 5.75 22.5 6.64543 22.5 7.75V16.5074C22.5 17.303 22.1839 18.0661 21.6213 18.6287L18.9571 21.2929C18.5044 21.7456 18.25 22.3597 18.25 23M18.5 15.1705V15.1875M18.5 15.1875V15.25M18.5 15.1875C18.5 15.7077 18.2933 16.2067 17.9255 16.5745L16 18.5"/>
</svg>
