<svg xmlns="http://www.w3.org/2000/svg"   fill="none" viewBox="0 0 24 24">
  <path stroke="currentColor" strokeLinecap="round" strokeLinejoin="bevel" strokeWidth="1.75" d="M21.25 4.25L16 4.25"/>
  <path stroke="currentColor" strokeLinecap="round" strokeWidth="1.75" d="M19.75 1.75L21.7197 3.71967C22.0126 4.01256 22.0126 4.48744 21.7197 4.78033L19.75 6.75"/>
  <path stroke="currentColor" strokeLinejoin="round" strokeWidth="2" d="M12.5002 13V6.25C12.5002 5.14543 11.6048 4.25 10.5002 4.25C9.39564 4.25 8.50021 5.14543 8.50021 6.25V16.1464C8.50021 16.3692 8.23092 16.4807 8.07343 16.3232L5.50021 13.75C4.74082 12.9906 3.5096 12.9906 2.75021 13.75C1.99082 14.5094 1.99082 15.7406 2.75021 16.5L6.94996 20.6997C8.26271 22.0125 10.0432 22.75 11.8997 22.75H13.5253C15.11 22.75 16.6297 22.1205 17.7502 21C18.8707 19.8795 19.5002 18.3598 19.5002 16.7751V13.5C19.5002 12.5335 18.7167 11.75 17.7502 11.75C16.7837 11.75 16.0002 12.5335 16.0002 13.5V14"/>
  <path stroke="currentColor" strokeLinecap="round" strokeWidth="2" d="M16 14.75V12C16 11.0335 15.2165 10.25 14.25 10.25C13.2835 10.25 12.5 11.0335 12.5 12V13.75"/>
</svg>
