<svg xmlns="http://www.w3.org/2000/svg"   fill="none" viewBox="0 0 24 24">
  <circle cx="19.75" cy="6.75" r="2.25" stroke="currentColor" strokeLinecap="square" strokeWidth="1.875"/>
  <path stroke="currentColor" strokeWidth="1.875" d="M18.5 4.75C18.5 3.50736 17.4926 2.5 16.25 2.5C15.0074 2.5 14 3.50736 14 4.75C14 5.99264 15.0074 7 16.25 7C16.6738 7 17.0703 6.8828 17.4088 6.67905"/>
  <path stroke="currentColor" strokeWidth="2" d="M2 19.25V15.25C2 14.8358 2.33579 14.5 2.75 14.5H5.5V20H2.75C2.33579 20 2 19.6642 2 19.25Z"/>
  <path stroke="currentColor" strokeLinecap="round" strokeWidth="2" d="M5.5 19.9999H9.41873C11.1325 19.9999 12.8391 19.7797 14.4967 19.3445L20.5078 17.7666C21.387 17.5358 22 16.7412 22 15.8322V15.7625C22 15.2742 21.806 14.8059 21.4608 14.4607C21.0178 14.0177 20.38 13.8304 19.7678 13.9634L17.0998 14.5434C15.7039 14.8469 14.2796 14.9999 12.8512 14.9999H11"/>
  <path stroke="currentColor" strokeWidth="2" d="M14 15V13.8473C14 13.2247 13.7527 12.6277 13.3125 12.1875C12.8723 11.7473 12.2753 11.5 11.6527 11.5H10.1569C9.09599 11.5 8.07857 11.9214 7.32843 12.6716L5.5 14.5"/>
</svg>
