<svg xmlns="http://www.w3.org/2000/svg" width="24" height="24" fill="none" viewBox="0 0 24 24">
  <path stroke="currentColor" strokeLinecap="round" strokeWidth="2" d="M13 17.75V17.2426C13 16.447 13.3161 15.6839 13.8787 15.1213L16.0607 12.9393C16.342 12.658 16.5 12.2765 16.5 11.8787V10C16.5 8.89543 17.3954 8 18.5 8C19.6046 8 20.5 8.89543 20.5 10V14.1863C20.5 16.308 19.6571 18.3429 18.1569 19.8431L17.7574 20.2426C16.6321 21.3679 15.106 22 13.5147 22H10.4749C8.89024 22 7.37051 21.3705 6.25 20.25C5.12949 19.1295 4.5 17.6098 4.5 16.0251V6.5C4.5 5.39543 5.39543 4.5 6.5 4.5C7.60457 4.5 8.5 5.39543 8.5 6.5V12"/>
  <path stroke="currentColor" strokeLinecap="round" strokeWidth="2" d="M16.5 10V5.5C16.5 4.39543 15.6046 3.5 14.5 3.5C13.3954 3.5 12.5 4.39543 12.5 5.5V9.5"/>
  <path stroke="currentColor" strokeLinecap="round" strokeWidth="2" d="M8.5 12V4C8.5 2.89543 9.39543 2 10.5 2C11.6046 2 12.5 2.89543 12.5 4V10.5"/>
</svg>
