<svg xmlns="http://www.w3.org/2000/svg"   fill="none" viewBox="0 0 24 24">
  <path stroke="currentColor" strokeLinejoin="round" strokeWidth="2" d="M1.25 15.25V10.75C1.25 10.3358 1.58579 10 2 10H4.75V16H2C1.58579 16 1.25 15.6642 1.25 15.25Z"/>
  <path stroke="currentColor" strokeLinecap="round" strokeWidth="2" d="M4.5 16.0001H9.59349C11.1921 16.0001 12.7849 15.8084 14.3378 15.4292L21.2396 13.7439C22.1262 13.5274 22.75 12.7329 22.75 11.8203V11.7752C22.75 11.2789 22.5528 10.8029 22.2019 10.4519C21.7629 10.013 21.1349 9.82028 20.5252 9.93751L16.8713 10.6402C15.6266 10.8796 14.3619 11.0001 13.0944 11.0001H11"/>
  <path stroke="currentColor" strokeWidth="2" d="M14 11V9.84727C14 9.22474 13.7527 8.6277 13.3125 8.1875C12.8723 7.7473 12.2753 7.5 11.6527 7.5H9.40685C8.34599 7.5 7.32857 7.92143 6.57843 8.67157L4.75 10.5"/>
</svg>
