<svg xmlns="http://www.w3.org/2000/svg" width="24" height="24" fill="none" viewBox="0 0 24 24">
  <path stroke="currentColor" strokeLinecap="round" strokeWidth="2" d="M12 22V15.7426C12 14.947 11.6839 14.1839 11.1213 13.6213L8.82452 11.3245C8.45666 10.9567 7.95774 10.75 7.4375 10.75H7.4205C6.91115 10.75 6.42266 10.9523 6.0625 11.3125C5.70234 11.6727 5.5 12.1611 5.5 12.6705M5.5 12.6705V5.25C5.5 4.14543 4.60457 3.25 3.5 3.25C2.39543 3.25 1.5 4.14543 1.5 5.25V14.0074C1.5 14.803 1.81607 15.5661 2.37868 16.1287L4.87132 18.6213C5.43393 19.1839 5.75 19.947 5.75 20.7426V22M5.5 12.6705V12.6875M5.5 12.6875V12.75M5.5 12.6875C5.5 13.2077 5.70666 13.7067 6.07452 14.0745L8 16"/>
  <path stroke="currentColor" strokeLinecap="round" strokeWidth="2" d="M12 22V15.7426C12 14.947 12.3161 14.1839 12.8787 13.6213L15.1755 11.3245C15.5433 10.9567 16.0423 10.75 16.5625 10.75H16.5795C17.0889 10.75 17.5773 10.9523 17.9375 11.3125C18.2977 11.6727 18.5 12.1611 18.5 12.6705M18.5 12.6705V5.25C18.5 4.14543 19.3954 3.25 20.5 3.25C21.6046 3.25 22.5 4.14543 22.5 5.25V14.0074C22.5 14.803 22.1839 15.5661 21.6213 16.1287L19.1287 18.6213C18.5661 19.1839 18.25 19.947 18.25 20.7426V22M18.5 12.6705V12.6875M18.5 12.6875V12.75M18.5 12.6875C18.5 13.2077 18.2933 13.7067 17.9255 14.0745L16 16"/>
</svg>
