<svg xmlns="http://www.w3.org/2000/svg"   fill="none" viewBox="0 0 24 24">
  <path stroke="currentColor" strokeLinecap="round" strokeWidth="1.75" d="M12 9.25V10.75"/>
  <path stroke="currentColor" strokeLinecap="round" strokeWidth="1.75" d="M12 1.25V2.75"/>
  <path stroke="currentColor" strokeLinecap="round" strokeWidth="1.75" d="M10 8.33333L10.1409 8.47542C10.6325 8.97115 11.3018 9.25 12 9.25H12.4416C12.8572 9.25 13.2555 9.08403 13.5481 8.78898C13.8376 8.4971 14 8.10268 14 7.69161V7.60419C14 7.26049 13.8897 6.92587 13.6853 6.64954C13.422 6.29354 13.0234 6.06209 12.5837 6.00993L12.5 6L11.5675 5.87242C11.1858 5.8202 10.8339 5.63751 10.5716 5.35536L10.5328 5.3136C10.2707 5.0317 10.125 4.66104 10.125 4.27612C10.125 3.93525 10.2396 3.6038 10.45 3.33555C10.7395 2.96629 11.1832 2.75 11.6524 2.75H12C12.5458 2.75 13.0769 2.92711 13.5135 3.25471L13.8182 3.48333"/>
  <path stroke="currentColor" strokeLinecap="round" strokeWidth="2" d="M12 23V18.2426C12 17.447 11.6839 16.6839 11.1213 16.1213L8.82452 13.8245C8.45666 13.4567 7.95774 13.25 7.4375 13.25H7.4205C6.91115 13.25 6.42266 13.4523 6.0625 13.8125C5.70234 14.1727 5.5 14.6611 5.5 15.1705M5.5 15.1705V7.75C5.5 6.64543 4.60457 5.75 3.5 5.75C2.39543 5.75 1.5 6.64543 1.5 7.75V16.5074C1.5 17.303 1.81607 18.0661 2.37868 18.6287L5.04289 21.2929C5.49565 21.7456 5.75 22.3597 5.75 23M5.5 15.1705V15.1875M5.5 15.1875V15.25M5.5 15.1875C5.5 15.7077 5.70666 16.2067 6.07452 16.5745L8 18.5"/>
  <path stroke="currentColor" strokeLinecap="round" strokeWidth="2" d="M12 23V18.2426C12 17.447 12.3161 16.6839 12.8787 16.1213L15.1755 13.8245C15.5433 13.4567 16.0423 13.25 16.5625 13.25H16.5795C17.0889 13.25 17.5773 13.4523 17.9375 13.8125C18.2977 14.1727 18.5 14.6611 18.5 15.1705M18.5 15.1705V7.75C18.5 6.64543 19.3954 5.75 20.5 5.75C21.6046 5.75 22.5 6.64543 22.5 7.75V16.5074C22.5 17.303 22.1839 18.0661 21.6213 18.6287L18.9571 21.2929C18.5044 21.7456 18.25 22.3597 18.25 23M18.5 15.1705V15.1875M18.5 15.1875V15.25M18.5 15.1875C18.5 15.7077 18.2933 16.2067 17.9255 16.5745L16 18.5"/>
</svg>
