<svg xmlns="http://www.w3.org/2000/svg" width="24" height="24" fill="none" viewBox="0 0 24 24">
  <path stroke="currentColor" strokeLinecap="round" strokeWidth="2" d="M9.25 14.75C9.25 14.75 9.18273 14.8171 8.75 15.25C7.93132 16.0689 6.99944 16.5 5.75 16.5C3.25157 16.5 1.25 14.4984 1.25 12C1.25 9.50157 3.25157 7.5 5.75 7.5C6.99945 7.5 7.93131 7.93108 8.75 8.75L15.25 15.25C16.0687 16.0689 17.0005 16.5 18.25 16.5C20.7484 16.5 22.75 14.4984 22.75 12C22.75 9.50157 20.7484 7.5 18.25 7.5C17.0006 7.5 16.0687 7.93109 15.25 8.75C14.8173 9.18285 14.75 9.25 14.75 9.25"/>
</svg>
