<svg xmlns="http://www.w3.org/2000/svg" width="24" height="24" fill="none" viewBox="0 0 24 24">
  <path stroke="currentColor" strokeLinecap="round" strokeWidth="2" d="M12 2.5V1.25"/>
  <path stroke="currentColor" strokeLinecap="round" strokeWidth="2" d="M21.5 12L22.75 12"/>
  <path stroke="currentColor" strokeLinecap="round" strokeWidth="2" d="M1.25 12L2.5 12"/>
  <path stroke="currentColor" strokeLinecap="round" strokeWidth="2" d="M4.36612 4.36612L5.25 5.25"/>
  <path stroke="currentColor" strokeLinecap="round" strokeWidth="2" d="M19.6251 4.36612L18.7412 5.25"/>
  <path stroke="currentColor" strokeLinecap="round" strokeWidth="2" d="M10 23H14"/>
  <path stroke="currentColor" strokeLinejoin="round" strokeWidth="2" d="M17.75 12C17.75 8.82436 15.1756 6.25 12 6.25C8.82436 6.25 6.25 8.82436 6.25 12C6.25 13.8126 7.14837 15.5669 8.58668 16.629C9.35889 17.1993 10 18.0192 10 18.9791V19H14V18.9791C14 18.0192 14.6411 17.1993 15.4133 16.629C16.8516 15.5669 17.75 13.8126 17.75 12Z"/>
</svg>
