<svg xmlns="http://www.w3.org/2000/svg" width="24" height="24" fill="none" viewBox="0 0 24 24">
  <path stroke="currentColor" strokeLinecap="round" strokeWidth="2" d="M8.25 16V11.25"/>
  <rect width="17" height="17" x="3.5" y="3.5" stroke="currentColor" strokeWidth="2" rx="2"/>
  <path fill="currentColor" fillRule="evenodd" d="M11.75 10.25C12.1313 10.25 12.4628 10.4634 12.6315 10.7773C12.691 10.7351 12.7518 10.6946 12.8139 10.6558C13.2382 10.3906 13.7285 10.25 14.2289 10.25H14.5429C15.2609 10.25 15.9494 10.5352 16.4571 11.0429C16.9648 11.5506 17.25 12.2391 17.25 12.9571V16C17.25 16.5523 16.8023 17 16.25 17C15.6977 17 15.25 16.5523 15.25 16V15.625H15.25L15.25 13C15.25 12.9982 15.25 12.9963 15.25 12.9945V12.9571C15.25 12.9147 15.2462 12.8726 15.2387 12.8314C15.1564 12.2208 14.6332 11.75 14 11.75C13.3097 11.75 12.75 12.3096 12.75 13L12.75 13.6162C12.75 13.6162 12.75 13.6162 12.75 13.6162V15.625V16C12.75 16.5523 12.3023 17 11.75 17C11.1977 17 10.75 16.5523 10.75 16V11.25C10.75 10.6977 11.1977 10.25 11.75 10.25Z" clipRule="evenodd"/>
  <path stroke="currentColor" strokeLinecap="round" strokeWidth="2.5" d="M8.25 7.9751V8.02509"/>
</svg>
