<svg xmlns="http://www.w3.org/2000/svg" width="24" height="24" fill="none" viewBox="0 0 24 24">
  <circle cx="12" cy="16" r="6.75" stroke="currentColor" strokeWidth="2"/>
  <path stroke="currentColor" strokeWidth="1.875" d="M13.375 9.25L9.89711 3.73335C9.80554 3.5881 9.64585 3.5 9.47415 3.5H4.69504C4.58732 3.5 4.5 3.58732 4.5 3.69504V3.69504C4.5 3.73098 4.50993 3.76622 4.5287 3.79688L8.47959 10.25"/>
  <path stroke="currentColor" strokeWidth="1.875" d="M11.9185 7L13.9779 3.73335C14.0695 3.5881 14.2291 3.5 14.4009 3.5H19.18C19.2877 3.5 19.375 3.58732 19.375 3.69504V3.69504C19.375 3.73098 19.3651 3.76622 19.3463 3.79688L15.4719 10.125"/>
  <path stroke="currentColor" strokeLinecap="round" strokeLinejoin="round" strokeWidth="1.75" d="M10.5 14.5L12.5 13.75V18.25"/>
</svg>
