<svg xmlns="http://www.w3.org/2000/svg"   fill="none" viewBox="0 0 24 24">
  <path stroke="currentColor" strokeLinecap="round" strokeWidth="2" d="M11.5586 18.8751C12.767 19.6696 14.3139 20.1466 16.0001 20.1466C16.3132 20.1466 16.6216 20.1301 16.9238 20.0982C17.288 20.0598 17.6587 20.1262 17.9703 20.3186L21.2262 22.3287C21.2753 22.359 21.332 22.3751 21.3898 22.3751C21.5797 22.3751 21.7254 22.2065 21.6979 22.0186L21.277 19.1422C21.2031 18.6373 21.4021 18.1388 21.7381 17.7549C22.5334 16.8462 23.0001 15.74 23.0001 14.5466C23.0001 12.7781 21.9754 11.2011 20.3751 10.1748"/>
  <path stroke="currentColor" strokeLinejoin="round" strokeWidth="2" d="M8.5 14.8037C12.6421 14.8037 16 12.1174 16 8.80371C16 5.49 12.6421 2.80371 8.5 2.80371C4.35786 2.80371 1 5.49 1 8.80371C1 10.129 1.53708 11.3539 2.4466 12.3467C2.81118 12.7447 3.01811 13.2772 2.92129 13.8082L2.40346 16.6482C2.37005 16.8314 2.51079 17.0001 2.69703 17.0001V17.0001C2.75059 17.0001 2.80315 16.9857 2.84922 16.9584L6.26976 14.9304C6.58425 14.7439 6.9554 14.6837 7.31812 14.7296C7.70312 14.7784 8.09786 14.8037 8.5 14.8037Z"/>
</svg>
