<svg xmlns="http://www.w3.org/2000/svg"   fill="none" viewBox="0 0 24 24">
  <path stroke="currentColor" strokeWidth="2" d="M4 3.5C4 2.67157 4.67157 2 5.5 2H18.5C19.3284 2 20 2.67157 20 3.5V20.5C20 21.3284 19.3284 22 18.5 22H5.5C4.67157 22 4 21.3284 4 20.5V3.5Z"/>
  <path stroke="currentColor" strokeLinecap="round" strokeWidth="2" d="M8 18L12 18"/>
  <path stroke="currentColor" strokeLinecap="round" strokeWidth="2" d="M8 14L16 14"/>
  <path stroke="currentColor" strokeWidth="2" d="M8 6.75C8 6.33579 8.33579 6 8.75 6H11.25C11.6642 6 12 6.33579 12 6.75V9.25C12 9.66421 11.6642 10 11.25 10H8.75C8.33579 10 8 9.66421 8 9.25V6.75Z"/>
  <path stroke="currentColor" strokeLinecap="round" strokeWidth="2.5" d="M16 9.97461V10.0246"/>
  <path stroke="currentColor" strokeLinecap="round" strokeWidth="2.5" d="M16 17.9746V18.0246"/>
  <path stroke="currentColor" strokeLinecap="round" strokeWidth="2.5" d="M16 5.97461V6.0246"/>
</svg>
