<svg xmlns="http://www.w3.org/2000/svg" width="24" height="24" fill="none" viewBox="0 0 24 24">
  <path stroke="currentColor" strokeWidth="1.95" d="M22 9V17.0729C22 17.6411 21.679 18.1605 21.1708 18.4146L14.6985 21.6507C14.2607 21.8696 13.7437 21.8612 13.3133 21.628L2.78558 15.9255C2.30153 15.6633 2 15.1571 2 14.6066V6.5"/>
  <path stroke="currentColor" strokeWidth="1.95" d="M13.3133 12.628L2.21576 6.61687C2.08282 6.54486 2 6.40581 2 6.25462C2 6.09857 2.08817 5.95592 2.22774 5.88613L9.30147 2.34927C9.73926 2.13037 10.2563 2.13884 10.6867 2.37197L21.7842 8.38313C21.9172 8.45514 22 8.59419 22 8.74538C22 8.90143 21.9118 9.04408 21.7723 9.11387L14.6985 12.6507C14.2607 12.8696 13.7437 12.8612 13.3133 12.628Z"/>
  <path stroke="currentColor" strokeWidth="1.95" d="M18.4325 10.7825L5.9375 4.03003"/>
  <path stroke="currentColor" strokeWidth="1.95" d="M14 22L14 13"/>
  <path fill="currentColor" fillRule="evenodd" d="M4.89279 14.1758C4.65077 14.0447 4.5 13.7916 4.5 13.5163V13.0045C4.5 12.4362 5.10749 12.0744 5.60721 12.3451L7.60721 13.4284C7.84923 13.5595 8 13.8126 8 14.0879V14.5996C8 15.168 7.39251 15.5298 6.89279 15.2591L4.89279 14.1758Z" clipRule="evenodd"/>
</svg>
