<svg xmlns="http://www.w3.org/2000/svg"   fill="none" viewBox="0 0 24 24">
  <path stroke="currentColor" strokeLinecap="round" strokeWidth="2" d="M5.5 12H13.5"/>
  <path stroke="currentColor" strokeLinecap="round" strokeWidth="2" d="M17.7502 19.5L16.3067 19.9441C15.1339 20.305 13.8758 20.277 12.7202 19.8643C11.6017 19.4648 10.3861 19.4254 9.24399 19.7517L6.97875 20.399C6.77018 20.4585 6.54759 20.3707 6.436 20.1847C6.32598 20.0013 6.35071 19.7673 6.49661 19.611L6.76339 19.3251C7.57835 18.4519 8.19568 17.4135 8.57339 16.2804C8.85607 15.4323 9.00018 14.5442 9.00018 13.6503V13.0977C9.00018 12.3681 8.92033 11.6406 8.76205 10.9284L8.21221 8.45409C8.07286 7.82703 8.08475 7.1758 8.2469 6.55424C8.56422 5.33785 9.42868 4.33792 10.5864 3.8481L10.7426 3.78203C11.5613 3.43565 12.4672 3.3483 13.3371 3.53144C14.0188 3.67495 14.6566 3.98024 15.1958 4.42138L15.3173 4.52084C15.604 4.75535 15.8503 5.03517 16.0466 5.34922C16.2639 5.69685 16.4164 6.08096 16.4968 6.48294L16.5002 6.49998"/>
</svg>
