<svg xmlns="http://www.w3.org/2000/svg"   fill="none" viewBox="0 0 24 24">
  <path stroke="currentColor" strokeLinecap="round" strokeWidth="2" d="M3.5 4.25C3.5 3.83579 3.83579 3.5 4.25 3.5H9.25C9.66421 3.5 10 3.83579 10 4.25V9.25C10 9.66421 9.66421 10 9.25 10H4.25C3.83579 10 3.5 9.66421 3.5 9.25V4.25Z"/>
  <path stroke="currentColor" strokeLinecap="round" strokeWidth="2" d="M20.5 10V4.25C20.5 3.83579 20.1642 3.5 19.75 3.5H14.75C14.3358 3.5 14 3.83579 14 4.25V9.25C14 9.66421 14.3358 10 14.75 10H17"/>
  <path stroke="currentColor" strokeLinecap="round" strokeWidth="2" d="M10 20.5H4.25C3.83579 20.5 3.5 20.1642 3.5 19.75V14.75C3.5 14.3358 3.83579 14 4.25 14H9.25C9.66421 14 10 14.3358 10 14.75V17"/>
  <path stroke="currentColor" strokeLinecap="round" strokeWidth="2" d="M6.75 6.7251V6.77509"/>
  <path stroke="currentColor" strokeLinecap="round" strokeWidth="2" d="M6.75 17.2251V17.2751"/>
  <path stroke="currentColor" strokeLinecap="round" strokeWidth="3" d="M17.25 17.2251V17.2751"/>
  <path stroke="currentColor" strokeLinecap="round" strokeWidth="2.75" d="M20.125 14.3501V14.4001"/>
  <path stroke="currentColor" strokeLinecap="round" strokeWidth="2.75" d="M20.125 20.1001V20.1501"/>
  <path stroke="currentColor" strokeLinecap="round" strokeWidth="2.75" d="M14.375 14.3501V14.4001"/>
  <path stroke="currentColor" strokeLinecap="round" strokeWidth="2.75" d="M14.375 20.1001V20.1501"/>
  <path stroke="currentColor" strokeLinecap="round" strokeWidth="2" d="M17.25 6.7251V6.77509"/>
</svg>
