<svg xmlns="http://www.w3.org/2000/svg"   fill="none" viewBox="0 0 24 24">
  <path stroke="currentColor" strokeLinecap="round" strokeWidth="2" d="M7.25 2.75H4.25C3.42157 2.75 2.75 3.42157 2.75 4.25V7.25"/>
  <path stroke="currentColor" strokeLinecap="round" strokeWidth="2" d="M16.75 2.75H19.75C20.5784 2.75 21.25 3.42157 21.25 4.25V7.25"/>
  <path stroke="currentColor" strokeLinecap="round" strokeWidth="2" d="M2.75 16.75L2.75 19.75C2.75 20.5784 3.42157 21.25 4.25 21.25L7.25 21.25"/>
  <path stroke="currentColor" strokeLinecap="round" strokeWidth="2" d="M21.25 16.75L21.25 19.75C21.25 20.5784 20.5784 21.25 19.75 21.25L16.75 21.25"/>
  <rect   x="6.5" y="6.5" stroke="currentColor" strokeLinecap="square" strokeWidth="1.75" rx="0.75"/>
  <rect   x="6.5" y="13.75" stroke="currentColor" strokeLinecap="square" strokeWidth="1.75" rx="0.75"/>
  <rect   x="13.75" y="6.5" stroke="currentColor" strokeLinecap="square" strokeWidth="1.75" rx="0.75"/>
  <path stroke="currentColor" strokeLinecap="round" strokeWidth="2.25" d="M15.625 15.6001V15.6501"/>
  <path stroke="currentColor" strokeLinecap="round" strokeWidth="2" d="M13.875 13.8501V13.9001"/>
  <path stroke="currentColor" strokeLinecap="round" strokeWidth="2" d="M13.875 17.3501V17.4001"/>
  <path stroke="currentColor" strokeLinecap="round" strokeWidth="2" d="M17.375 13.8501V13.9001"/>
  <path stroke="currentColor" strokeLinecap="round" strokeWidth="2" d="M17.375 17.3501V17.4001"/>
</svg>
