<svg xmlns="http://www.w3.org/2000/svg"   fill="none" viewBox="0 0 24 24">
  <path stroke="currentColor" strokeLinejoin="round" strokeWidth="2" d="M5.47597 3.78715L3.95633 4.37812C3.37977 4.60233 3 5.1575 3 5.77612V10.4753C3 15.0118 5.785 19.0831 10.0131 20.7273L11.4563 21.2886C11.806 21.4246 12.194 21.4246 12.5437 21.2886L13.9869 20.7273C18.215 19.0831 21 15.0118 21 10.4753V5.77612C21 5.1575 20.6202 4.60233 20.0437 4.37812L18.524 3.78715C14.3278 2.15526 9.67225 2.15526 5.47597 3.78715Z"/>
  <path stroke="currentColor" strokeLinecap="round" strokeWidth="2.125" d="M12 16.5251L12 16.2251"/>
  <path stroke="currentColor" strokeLinecap="round" strokeWidth="2" d="M12 12.7501C12 12.5177 12.1228 12.3025 12.3228 12.1843L13.5264 11.4731C14.2847 11.025 14.75 10.2097 14.75 9.32879C14.75 8.12505 13.8891 7.09356 12.7048 6.87823L12.4919 6.83952C12.1666 6.78038 11.8334 6.78038 11.5081 6.83952L10.9893 6.93385C9.95059 7.1227 9.1493 7.955 9 9.00008"/>
</svg>
