<svg xmlns="http://www.w3.org/2000/svg" width="24" height="24" fill="none" viewBox="0 0 24 24">
  <path stroke="currentColor" strokeLinecap="round" strokeWidth="2" d="M3 1.75L21.5 20.25"/>
  <path stroke="currentColor" strokeLinecap="round" strokeWidth="2" d="M5.125 3.92364L3.95633 4.37812C3.37977 4.60233 3 5.1575 3 5.77612V10.4753C3 15.0118 5.785 19.0831 10.0131 20.7273L11.4563 21.2886C11.806 21.4246 12.194 21.4246 12.5437 21.2886L13.9869 20.7273C15.8221 20.0137 17.3854 18.8427 18.5671 17.375M10.25 2.64848C13.0369 2.37631 15.8722 2.75586 18.524 3.78715L20.0437 4.37812C20.6202 4.60234 21 5.1575 21 5.77612V10.4753C21 11.3691 20.8919 12.2448 20.6859 13.0875"/>
</svg>
