<svg xmlns="http://www.w3.org/2000/svg"   fill="none" viewBox="0 0 24 24">
  <path stroke="currentColor" strokeWidth="2" d="M17.2945 8.29412C17.2945 5.37026 14.9508 3 12.0269 3C12.0224 3 12.018 3.00001 12.0136 3.00002C12.0092 3.00001 12.0047 3 12.0003 3C9.07646 3 6.7062 5.37026 6.7062 8.29412C6.7062 8.68479 6.32215 8.95668 5.93529 8.90218C5.21136 8.80021 4.38399 8.9118 3.92679 9.75C3.19478 11.092 5.49916 12.5465 6.17512 12.9731C6.25328 13.0224 6.2829 13.1191 6.23958 13.2008C6.01494 13.6242 5.19988 14.9297 3.1327 16.2353C0.635478 17.8125 4.67814 18.6962 7.05251 18.856C7.50317 18.8863 7.92903 19.0879 8.26206 19.3931C8.94601 20.0197 10.2894 21 12.0003 21C12.0048 21 12.0092 21 12.0136 20.9999C12.018 21 12.0224 21 12.0269 21C13.7309 21 15.0581 20.0276 15.7368 19.4007C16.0715 19.0915 16.5005 18.8863 16.9551 18.8555C19.3304 18.6945 23.3629 17.811 20.868 16.2353C18.8008 14.9297 17.9858 13.6241 17.7611 13.2008C17.7178 13.1191 17.7474 13.0224 17.8256 12.9731C18.5016 12.5465 20.8059 11.092 20.0739 9.75C19.6167 8.91179 18.7894 8.80021 18.0654 8.90218C17.6786 8.95668 17.2945 8.68479 17.2945 8.29412Z"/>
</svg>
