<svg xmlns="http://www.w3.org/2000/svg"   fill="none" viewBox="0 0 24 24">
  <path stroke="currentColor" strokeLinecap="round" strokeWidth="2" d="M20 19.5V14.5"/>
  <path stroke="currentColor" strokeLinecap="round" strokeWidth="2" d="M4 20.5V17"/>
  <path stroke="currentColor" strokeLinecap="round" strokeWidth="2" d="M20 4.5V2"/>
  <path stroke="currentColor" strokeLinecap="round" strokeWidth="2" d="M4 7V3.5"/>
  <path stroke="currentColor" strokeLinecap="round" strokeWidth="2" d="M12 22V19.5"/>
  <path stroke="currentColor" strokeLinecap="round" strokeWidth="2" d="M12 9.5V4.5"/>
  <path stroke="currentColor" strokeLinecap="square" strokeWidth="2" d="M14 10C14 9.72386 13.7761 9.5 13.5 9.5H10.5C10.2239 9.5 10 9.72386 10 10V19C10 19.2761 10.2239 19.5 10.5 19.5H13.5C13.7761 19.5 14 19.2761 14 19V10Z"/>
  <path stroke="currentColor" strokeLinecap="square" strokeWidth="2" d="M22 5C22 4.72386 21.7761 4.5 21.5 4.5H18.5C18.2239 4.5 18 4.72386 18 5V14C18 14.2761 18.2239 14.5 18.5 14.5H21.5C21.7761 14.5 22 14.2761 22 14V5Z"/>
  <path stroke="currentColor" strokeLinecap="square" strokeWidth="2" d="M6 7.5C6 7.22386 5.77614 7 5.5 7H2.5C2.22386 7 2 7.22386 2 7.5V16.5C2 16.7761 2.22386 17 2.5 17H5.5C5.77614 17 6 16.7761 6 16.5V7.5Z"/>
</svg>
