<svg xmlns="http://www.w3.org/2000/svg"   fill="none" viewBox="0 0 24 24">
  <path stroke="currentColor" strokeLinecap="round" strokeWidth="2" d="M12 23V11"/>
  <path stroke="currentColor" strokeLinecap="square" strokeWidth="1.875" d="M14.75 8H17.25C17.3881 8 17.5 7.88807 17.5 7.75V7.60355C17.5 7.53725 17.4737 7.47366 17.4268 7.42678L12.1768 2.17678C12.0791 2.07915 11.9209 2.07915 11.8232 2.17678L6.57322 7.42678C6.52634 7.47366 6.5 7.53725 6.5 7.60355V7.75C6.5 7.88807 6.61193 8 6.75 8H9.25C9.38807 8 9.5 8.11193 9.5 8.25V8.39645C9.5 8.46275 9.47366 8.52634 9.42678 8.57322L4.82322 13.1768C4.77634 13.2237 4.75 13.2872 4.75 13.3536V13.5C4.75 13.6381 4.86193 13.75 5 13.75H7.625C7.76307 13.75 7.875 13.8619 7.875 14V14.1445C7.875 14.212 7.84776 14.2765 7.79947 14.3236L3.07553 18.9264C3.02724 18.9735 3 19.038 3 19.1055V19.25C3 19.3881 3.11193 19.5 3.25 19.5H20.75C20.8881 19.5 21 19.3881 21 19.25V19.1036C21 19.0372 20.9737 18.9737 20.9268 18.9268L16.3232 14.3232C16.2763 14.2763 16.25 14.2128 16.25 14.1464V14C16.25 13.8619 16.3619 13.75 16.5 13.75H18.75C18.8881 13.75 19 13.6381 19 13.5V13.3496C19 13.2857 18.9755 13.2241 18.9315 13.1777L14.5685 8.57232C14.5245 8.52588 14.5 8.46435 14.5 8.40038V8.25C14.5 8.11193 14.6119 8 14.75 8Z"/>
</svg>
