<svg xmlns="http://www.w3.org/2000/svg" width="24" height="24" fill="none" viewBox="0 0 24 24">
  <circle cx="18.5" cy="14.25" r="1.75" stroke="currentColor" strokeWidth="1.75"/>
  <circle cx="5.5" cy="3.25" r="1.75" stroke="currentColor" strokeWidth="1.75"/>
  <path stroke="currentColor" strokeWidth="1.875" d="M16.5574 19.1171C17.1356 18.8748 17.7562 18.75 18.3831 18.75H18.6169C19.2438 18.75 19.8644 18.8748 20.4426 19.1171L20.7175 19.2324C21.0586 19.3754 21.3712 19.5786 21.6402 19.8324L21.6795 19.8695C21.826 20.0076 21.9561 20.1622 22.067 20.3302C22.3494 20.7577 22.5 21.2587 22.5 21.771V22.1975C22.5 22.3646 22.3646 22.5 22.1975 22.5H14.8025C14.6354 22.5 14.5 22.3646 14.5 22.1975V21.771C14.5 21.2587 14.6506 20.7577 14.933 20.3302C15.0439 20.1622 15.174 20.0076 15.3205 19.8695L15.3598 19.8324C15.6288 19.5786 15.9414 19.3754 16.2825 19.2324L16.5574 19.1171Z"/>
  <path stroke="currentColor" strokeWidth="1.875" d="M3.55744 8.11715C4.13558 7.87481 4.75618 7.75 5.38306 7.75H5.61694C6.24382 7.75 6.86442 7.87481 7.44256 8.11715L7.71753 8.23241C8.05861 8.37538 8.37116 8.5786 8.64021 8.83235L8.67955 8.86946C8.82603 9.00761 8.95605 9.16222 9.06704 9.33021C9.34944 9.75768 9.5 10.2587 9.5 10.771V11.1975C9.5 11.3646 9.36457 11.5 9.19751 11.5H1.80248C1.63543 11.5 1.5 11.3646 1.5 11.1975V10.771C1.5 10.2587 1.65056 9.75768 1.93296 9.33021C2.04395 9.16222 2.17398 9.00761 2.32045 8.86946L2.35979 8.83235C2.62884 8.5786 2.94139 8.37538 3.28247 8.23241L3.55744 8.11715Z"/>
  <path stroke="currentColor" strokeLinecap="round" strokeWidth="2" d="M18.5 7.5L18.5 6C18.5 5.17157 17.8284 4.5 17 4.5L12.25 4.5"/>
  <path stroke="currentColor" strokeLinecap="round" strokeWidth="2" d="M5.5 16.5L5.5 18C5.5 18.8284 6.17157 19.5 7 19.5H9.5"/>
</svg>
