<svg xmlns="http://www.w3.org/2000/svg" width="24" height="24" fill="none" viewBox="0 0 24 24">
  <circle cx="12" cy="7" r="3" stroke="currentColor" strokeWidth="2"/>
  <path stroke="currentColor" strokeWidth="2" d="M10.6081 14.2088C11.0334 14.0705 11.4778 14 11.925 14H12.075C12.5222 14 12.9666 14.0705 13.3919 14.2088L13.4734 14.2353C14.1228 14.4466 14.706 14.8233 15.1657 15.3283C15.5735 15.7765 15.8723 16.3128 16.0388 16.8954L16.1431 17.2606C16.214 17.5087 16.25 17.7656 16.25 18.0236V18.2283C16.25 18.9306 15.6806 19.5 14.9783 19.5H9.02169C8.31936 19.5 7.75 18.9306 7.75 18.2283V18.0236C7.75 17.7656 7.78597 17.5087 7.85687 17.2606L7.96121 16.8954C8.12767 16.3128 8.42649 15.7765 8.83435 15.3283C9.294 14.8233 9.87721 14.4466 10.5266 14.2353L10.6081 14.2088Z"/>
  <path stroke="currentColor" strokeLinecap="round" strokeWidth="2" d="M18.1982 11.1127C18.3401 11.1364 18.4858 11.1487 18.6344 11.1487C20.0896 11.1487 21.2692 9.96905 21.2692 8.51391C21.2692 7.29919 20.4471 6.27646 19.329 5.97168"/>
  <path stroke="currentColor" strokeLinecap="round" strokeWidth="2" d="M5.80176 11.1127C5.65988 11.1364 5.51417 11.1487 5.36558 11.1487C3.91045 11.1487 2.73083 9.96905 2.73083 8.51391C2.73083 7.29919 3.55287 6.27646 4.67099 5.97168"/>
  <path stroke="currentColor" strokeLinecap="round" strokeWidth="2" d="M20.0645 15.1548L20.4483 15.2525C20.8581 15.3569 21.2423 15.5441 21.577 15.8027C22.0756 16.1878 22.4448 16.7158 22.6354 17.3163L22.6828 17.4657C22.7275 17.6065 22.7503 17.7534 22.7503 17.9011V18.2107C22.7503 18.9227 22.1731 19.4999 21.4611 19.4999H20.5003"/>
  <path stroke="currentColor" strokeLinecap="round" strokeWidth="2" d="M3.93555 15.1548L3.55172 15.2525C3.14186 15.3569 2.75773 15.5441 2.42301 15.8027C1.92442 16.1878 1.55519 16.7158 1.36459 17.3163L1.31717 17.4657C1.27248 17.6065 1.24973 17.7534 1.24973 17.9011V18.2107C1.24973 18.9227 1.82693 19.4999 2.53893 19.4999H3.49973"/>
</svg>
