<svg xmlns="http://www.w3.org/2000/svg"   fill="none" viewBox="0 0 24 24">
  <circle cx="12" cy="10" r="2.5" stroke="currentColor" strokeWidth="2"/>
  <path stroke="currentColor" strokeWidth="2" d="M3.90479 20L5.30007 18.2764C5.51637 18.0092 5.75338 17.7595 6.00891 17.5295C6.58181 17.0139 7.24128 16.6035 7.95692 16.3172L8.37604 16.1496C9.44884 15.7205 10.5937 15.5 11.7491 15.5H12.2509C13.4064 15.5 14.5512 15.7205 15.624 16.1496L16.0431 16.3172C16.7588 16.6035 17.4182 17.0139 17.9911 17.5295C18.2467 17.7595 18.4837 18.0092 18.7 18.2764L20.0953 20"/>
  <path stroke="currentColor" strokeWidth="2" d="M3.5 5C3.5 4.17157 4.17157 3.5 5 3.5H19C19.8284 3.5 20.5 4.17157 20.5 5V19C20.5 19.8284 19.8284 20.5 19 20.5H5C4.17157 20.5 3.5 19.8284 3.5 19V5Z"/>
</svg>
