<svg xmlns="http://www.w3.org/2000/svg" width="24" height="24" fill="none" viewBox="0 0 24 24">
  <path stroke="currentColor" strokeLinecap="round" strokeWidth="2" d="M12.0167 12.75H10.2407C9.08099 12.75 7.93318 12.9835 6.86569 13.4367L6.47818 13.6011C5.62981 13.9613 4.86571 14.4941 4.23456 15.1657L4.21188 15.1899C3.92137 15.499 3.66277 15.8366 3.44001 16.1977C2.82546 17.1937 2.5 18.341 2.5 19.5113V20.0295C2.5 20.7035 3.04646 21.25 3.72055 21.25H10"/>
  <circle cx="12" cy="5.5" r="3.5" stroke="currentColor" strokeWidth="2"/>
  <path stroke="currentColor" strokeLinejoin="round" strokeWidth="1.75" d="M17.5542 15.831C17.7774 15.778 18.0102 15.75 18.2495 15.75C18.489 15.75 18.7218 15.778 18.9451 15.831L18.4995 14.5H17.9996L17.5542 15.831Z"/>
  <path stroke="currentColor" strokeLinejoin="round" strokeWidth="1.75" d="M17.5542 21.669L17.9996 23H18.4995L18.945 21.669C18.7218 21.722 18.489 21.75 18.2495 21.75C18.0102 21.75 17.7774 21.722 17.5542 21.669Z"/>
  <path stroke="currentColor" strokeLinejoin="round" strokeWidth="1.75" d="M15.3738 17.8927C15.4396 17.673 15.5317 17.4573 15.6514 17.25C15.7711 17.0427 15.9118 16.8551 16.0693 16.6882L14.6938 16.4086L14.4438 16.8415L15.3738 17.8927Z"/>
  <path stroke="currentColor" strokeLinejoin="round" strokeWidth="1.75" d="M20.4297 20.8117L21.805 21.0915L22.055 20.6586L21.1251 19.6072C21.0594 19.827 20.9672 20.0427 20.8475 20.25C20.7278 20.4573 20.5872 20.645 20.4297 20.8117Z"/>
  <path stroke="currentColor" strokeLinejoin="round" strokeWidth="1.75" d="M16.0693 20.8117C15.9119 20.6449 15.7712 20.4573 15.6515 20.25C15.5318 20.0427 15.4396 19.827 15.3739 19.6072L14.444 20.6585L14.6939 21.0915L16.0693 20.8117Z"/>
  <path stroke="currentColor" strokeLinejoin="round" strokeWidth="1.75" d="M21.1252 17.8927L22.0552 16.8415L21.8052 16.4085L20.4297 16.6882C20.5872 16.855 20.7279 17.0427 20.8477 17.25C20.9673 17.4573 21.0595 17.6729 21.1252 17.8927Z"/>
  <circle cx="18.2495" cy="18.75" r="3" stroke="currentColor" strokeWidth="1.75"/>
</svg>
