<svg xmlns="http://www.w3.org/2000/svg" width="24" height="24" fill="none" viewBox="0 0 24 24">
  <circle cx="9" cy="6.5" r="3" stroke="currentColor" strokeWidth="2"/>
  <path stroke="currentColor" strokeWidth="2" d="M6.37617 13.5289C7.11626 13.1806 7.92411 13 8.74204 13H9.25796C10.0759 13 10.8837 13.1806 11.6238 13.5289L11.6627 13.5471C12.298 13.8461 12.8681 14.2674 13.3404 14.787C13.6949 15.1768 13.9896 15.617 14.2152 16.0932L14.323 16.3208C14.7688 17.2618 15 18.2902 15 19.3315V19.3996C15 20.0073 14.5073 20.5 13.8996 20.5H4.10039C3.49266 20.5 3 20.0073 3 19.3996V19.3315C3 18.2902 3.23123 17.2618 3.677 16.3208L3.78479 16.0932C4.01036 15.617 4.30515 15.1768 4.65958 14.787C5.13189 14.2674 5.70201 13.8461 6.33731 13.5471L6.37617 13.5289Z"/>
  <path stroke="currentColor" strokeLinecap="round" strokeWidth="2" d="M19.5001 20.5H19.9695C20.5388 20.5 21.0003 20.0386 21.0003 19.4693V19.4025C21.0003 18.4284 20.7838 17.4665 20.3666 16.5863L20.2637 16.3692C20.057 15.9331 19.7876 15.5297 19.4639 15.1717C19.1063 14.7761 18.6876 14.4417 18.2246 14.1807"/>
  <path stroke="currentColor" strokeLinecap="round" strokeWidth="2" d="M15.375 10.2499C16.9628 10.2499 18.25 8.96277 18.25 7.37495C18.25 6.06911 17.3794 4.96661 16.187 4.61621"/>
</svg>
