<svg xmlns="http://www.w3.org/2000/svg"   fill="none" viewBox="0 0 24 24">
  <path stroke="currentColor" strokeWidth="1.875" d="M17.0356 9.62138C17.1686 9.70117 17.25 9.8449 17.25 10V10C17.25 10.1551 17.1686 10.2988 17.0356 10.3786L12.343 13.1943C12.2821 13.2308 12.2125 13.2501 12.1415 13.2501V13.2501C11.9253 13.2501 11.75 13.0748 11.75 12.8585L11.75 7.14155C11.75 6.9253 11.9253 6.75 12.1415 6.75V6.75C12.2125 6.75 12.2821 6.76929 12.343 6.8058L17.0356 9.62138Z"/>
  <rect   x="6.5" y="2.5" stroke="currentColor" strokeWidth="2" rx="1.5"/>
  <path stroke="currentColor" strokeLinecap="round" strokeWidth="2" d="M2.5 7.5V20C2.5 20.8284 3.17157 21.5 4 21.5H16.5"/>
</svg>
