<svg xmlns="http://www.w3.org/2000/svg" width="24" height="24" fill="none" viewBox="0 0 24 24">
  <path stroke="currentColor" strokeLinecap="round" strokeWidth="2" d="M16.1707 8C16.5825 6.83481 17.6937 6 18.9999 6C20.6568 6 21.9999 7.34315 21.9999 9C21.9999 10.6569 20.6568 12 18.9999 12H2"/>
  <path stroke="currentColor" strokeLinecap="round" strokeWidth="2" d="M7.17065 4C7.58249 2.83481 8.69373 2 9.99995 2C11.6568 2 12.9999 3.34315 12.9999 5C12.9999 6.65685 11.6568 8 9.99995 8H2"/>
  <path stroke="currentColor" strokeLinecap="round" strokeWidth="2" d="M10.1707 20C10.5825 21.1652 11.6937 22 12.9999 22C14.6568 22 15.9999 20.6569 15.9999 19C15.9999 17.3431 14.6568 16 12.9999 16H2"/>
</svg>
