<svg xmlns="http://www.w3.org/2000/svg" width="24" height="24" fill="none" viewBox="0 0 24 24">
  <path stroke="currentColor" strokeLinecap="square" strokeWidth="2" d="M2.232 7.8077C2.36417 6.44596 3.44922 5.39662 4.81332 5.29166C6.59663 5.15445 9.22109 5 12 5C14.7789 5 17.4034 5.15445 19.1867 5.29166C20.5508 5.39662 21.6358 6.44596 21.768 7.80769C21.8867 9.03084 22 10.5721 22 12C22 13.4279 21.8867 14.9692 21.768 16.1923C21.6358 17.554 20.5508 18.6034 19.1867 18.7083C17.4034 18.8456 14.7789 19 12 19C9.22108 19 6.59662 18.8456 4.81331 18.7083C3.44921 18.6034 2.36417 17.554 2.23199 16.1923C2.11327 14.9692 1.99999 13.4279 2 12C2.00001 10.5721 2.11328 9.03085 2.232 7.8077Z"/>
  <path stroke="currentColor" strokeWidth="1.875" d="M14.794 11.6084C14.923 11.697 15 11.8435 15 12V12C15 12.1565 14.923 12.303 14.794 12.3916L11.0976 14.9329C11.034 14.9767 10.9587 15.0001 10.8815 15.0001V15.0001C10.6708 15.0001 10.5 14.8293 10.5 14.6186V9.38151C10.5 9.17081 10.6708 9 10.8815 9V9C10.9587 9 11.034 9.02341 11.0976 9.06713L14.794 11.6084Z"/>
</svg>
