<svg xmlns="http://www.w3.org/2000/svg" xml:space="preserve"
    style="fill-rule:evenodd;clip-rule:evenodd;stroke-linejoin:round;stroke-miterlimit:2"
    viewBox="0 0 1000 290"><path d="M415.22 224.4h-54.1q-19 0-19-19v-87.63H313V94.62h29.13V63.67l26.79-8.32v39.27H410v23.15h-41.1v83.48h46.3zM435 122.58a54.15 54.15 0 0 1 22.2-22.76Q471.5 92 490.49 92q29.91 0 47.33 16.9t17.43 46.82v9.1H453.56q.78 18.47 10.53 29.65t27.7 11.18q15.34 0 24.84-7t12.61-19.76h26.53a59.93 59.93 0 0 1-19.9 34.46Q520.14 227 492.31 227q-20.81 0-35.5-9a57.56 57.56 0 0 1-22.24-24.58Q427 177.85 427 158.08q0-20.55 8-35.5m94 24.84q-1-16.39-11.31-25.49t-26.92-9.11q-15.6 0-25.75 9.11t-11.44 25.49zM580.86 33.24h26.79v113.39h13.78l47.34-52h33.29l-58.78 62.94 58.26 66.84h-33.29l-48.12-56.18h-12.48v56.17h-26.79zM846.14 94.62 806.61 224.4h-55.92L710.64 94.62h27l37.46 122.5h7.28l37.19-122.5zM862.84 122.58a54.16 54.16 0 0 1 22.24-22.76Q899.38 92 918.37 92q29.91 0 47.34 16.9t17.42 46.82v9.1H881.44q.78 18.47 10.53 29.65t27.7 11.18q15.35 0 24.84-7t12.62-19.76h26.52a59.92 59.92 0 0 1-19.89 34.46Q948 227 920.19 227q-20.81 0-35.5-9a57.56 57.56 0 0 1-22.24-24.58q-7.55-15.6-7.54-35.37 0-20.52 7.93-35.47m94 24.84q-1-16.39-11.31-25.49t-26.92-9.11q-15.6 0-25.75 9.11t-11.44 25.49z" style="fill-rule:nonzero"/><path d="M139.91 6.38c75.425 0 137.49 62.065 137.49 137.49s-62.065 137.49-137.49 137.49S2.42 219.295 2.42 143.87C2.453 68.458 64.498 6.413 139.91 6.38M95.56 35A118.06 118.06 0 0 0 29 105a96.85 96.85 0 0 1 44.53-17.32c1.2-5.22 7.12-29 20.87-50.84.38-.62.77-1.22 1.16-1.84m153.23 64.6A118.06 118.06 0 0 0 178 32.69c4.6 6.35 14 23.9 20 45.34 7.6 1.88 29.14 7.91 49 20.44zm-64 152.91A118.06 118.06 0 0 0 251 182.23c-6.42 4.6-23.59 13.73-44.57 19.66-1.14 3.97-8.21 29.57-21.69 50.62zM31 188.13a118.06 118.06 0 0 0 69.8 66.57 96.8 96.8 0 0 1-17.19-44.35C78 208.76 52.05 201.5 31 188.13M96.45 87.34c13.66 1.26 28.36 5.14 43.85 12.41-14.77.19-44.64-.75-79.39 13.74-23.91 10-36.38 23.46-36 35.43.17 6.22 6.44 14.47 19.28 22.71 14.21 9.13 31.13 15 39 17.49 1.09-14.14 5-29.42 12.55-45.56.19 14.77-.75 44.64 13.75 79.39 10 23.92 23.45 36.38 35.43 36.05 6.22-.17 14.46-6.44 22.71-19.28 7.25-11.29 12.45-24.29 15.53-33.09-24 2.83-49.48-.9-68.46-20.2 8.24.46 46.55 5.37 88.66-7.22 32.69-9.77 51.11-26 51-40.28 0-5.31-6.79-14-21.43-22.87a149.8 149.8 0 0 0-30.16-13.62c2.46 23.49-1.54 48.25-20.38 66.79.45-8.24 5.36-46.55-7.22-88.65-9.77-32.7-26-51.12-40.29-51-5.3 0-14 6.79-22.86 21.43a154.4 154.4 0 0 0-15.57 36.33"/></svg>