<svg xmlns="http://www.w3.org/2000/svg" viewBox="0 0 100 100.3">
    <path
        d="M50 1A49.14 49.14 0 1 1 .86 50.15 49.16 49.16 0 0 1 50 1M34.15 11.25a42.16 42.16 0 0 0-23.79 25 34.5 34.5 0 0 1 15.91-6.19 63.3 63.3 0 0 1 7.46-18.16Zm54.76 23.08a42.14 42.14 0 0 0-25.29-23.91 57.8 57.8 0 0 1 7.13 16.2 63 63 0 0 1 17.53 7.31ZM66 89a42.2 42.2 0 0 0 23.7-25.14 58 58 0 0 1-15.93 7C73.36 72.3 70.84 81.45 66 89M11.09 66A42.16 42.16 0 0 0 36 89.76a34.7 34.7 0 0 1-6.14-15.85c-1.99-.57-11.26-3.16-18.77-7.91m23.38-36a47 47 0 0 1 15.67 4.43c-5.28.07-16-.27-28.37 4.91C13.22 42.86 8.76 47.68 8.88 52c.06 2.23 2.3 5.17 6.89 8.12a62 62 0 0 0 13.93 6.2A46.7 46.7 0 0 1 34.19 50c.07 5.28-.27 15.95 4.91 28.37 3.57 8.55 8.38 13 12.66 12.89 2.23-.07 5.17-2.31 8.12-6.9a58.4 58.4 0 0 0 5.55-11.82c-8.57 1-17.68-.32-24.46-7.22 2.94.16 16.63 1.92 31.68-2.58 11.68-3.49 18.27-9.28 18.24-14.4 0-1.89-2.43-5-7.66-8.17a53.4 53.4 0 0 0-10.78-4.87c.88 8.4-.55 17.25-7.28 23.87.16-2.94 1.92-16.63-2.58-31.68-3.49-11.64-9.28-18.23-14.4-18.2-1.9 0-5 2.42-8.17 7.66A54.8 54.8 0 0 0 34.47 30"
        style="fill-rule:evenodd" />
</svg>